<?xml version="1.0" encoding="UTF-8"?><svg id="Capa_2" xmlns="http://www.w3.org/2000/svg" viewBox="0 0 218.8 68.29"><defs><style>.cls-1{stroke-width:0px;}</style></defs><g id="Capa_1-2"><path class="cls-1" d="M115.32,17.16c0,2.46-1.98,4.44-4.44,4.44s-4.44-1.98-4.44-4.44,1.91-4.44,4.44-4.44c2.53.07,4.44,2.05,4.44,4.44ZM97,26.11v1.09s-2.12-2.73-6.63-2.73c-7.45,0-13.26,5.67-13.26,13.53s5.74,13.53,13.26,13.53c4.58,0,6.63-2.8,6.63-2.8v1.16c0,.55.41.96.96.96h5.54v-25.7h-5.54c-.55,0-.96.48-.96.96ZM97,42.58c-1.03,1.5-3.08,2.8-5.54,2.8-4.37,0-7.72-2.73-7.72-7.38s3.35-7.38,7.72-7.38c2.39,0,4.58,1.37,5.54,2.8v9.16ZM107.59,25.15h6.56v25.7h-6.56v-25.7ZM205.61,24.47c-4.51,0-6.63,2.73-6.63,2.73v-14.42h-6.56v38.07h5.54c.55,0,.96-.48.96-.96v-1.16h0s2.12,2.8,6.63,2.8c7.45,0,13.26-5.74,13.26-13.53,0-7.79-5.81-13.53-13.19-13.53ZM204.52,45.32c-2.53,0-4.51-1.3-5.54-2.8v-9.16c1.03-1.37,3.21-2.8,5.54-2.8,4.37,0,7.72,2.73,7.72,7.38s-3.35,7.38-7.72,7.38ZM189,35.61v15.31h-6.56v-14.56c0-4.24-1.37-5.95-5.06-5.95-1.98,0-4.03,1.03-5.33,2.53v17.91h-6.56v-25.7h5.19c.55,0,.96.48.96.96v1.09c1.91-1.98,4.44-2.73,6.97-2.73,2.87,0,5.26.82,7.18,2.46,2.32,1.91,3.21,4.37,3.21,8.68ZM149.56,24.47c-4.51,0-6.63,2.73-6.63,2.73v-14.42h-6.56v38.07h5.54c.55,0,.96-.48.96-.96v-1.16h0s2.12,2.8,6.63,2.8c7.45,0,13.26-5.74,13.26-13.53.07-7.79-5.74-13.53-13.19-13.53ZM148.47,45.32c-2.53,0-4.51-1.3-5.54-2.8v-9.16c1.03-1.37,3.21-2.8,5.54-2.8,4.37,0,7.72,2.73,7.72,7.38s-3.35,7.38-7.72,7.38ZM130.7,24.47c1.98,0,3.01.34,3.01.34v6.08s-5.47-1.85-8.89,2.05v17.98h-6.56v-25.77h5.54c.55,0,.96.48.96.96v1.09c1.23-1.44,3.9-2.73,5.95-2.73ZM62.55,48.53c-.34-.82-.68-1.71-1.03-2.46-.55-1.23-1.09-2.39-1.57-3.49l-.07-.07c-4.72-10.25-9.77-20.64-15.11-30.9l-.21-.41c-.55-1.03-1.09-2.12-1.64-3.21-.68-1.23-1.37-2.53-2.46-3.76-2.19-2.73-5.33-4.24-8.68-4.24s-6.49,1.5-8.75,4.1c-1.03,1.23-1.78,2.53-2.46,3.76-.55,1.09-1.09,2.19-1.64,3.21l-.21.41c-5.26,10.25-10.39,20.64-15.11,30.9l-.07.14c-.48,1.09-1.03,2.26-1.57,3.49-.34.75-.68,1.57-1.03,2.46-.89,2.53-1.16,4.92-.82,7.38.75,5.13,4.17,9.43,8.89,11.35,1.78.75,3.62,1.09,5.54,1.09.55,0,1.23-.07,1.78-.14,2.26-.27,4.58-1.03,6.84-2.32,2.8-1.57,5.47-3.83,8.48-7.11,3.01,3.28,5.74,5.54,8.48,7.11,2.26,1.3,4.58,2.05,6.84,2.32.55.07,1.23.14,1.78.14,1.91,0,3.83-.34,5.54-1.09,4.78-1.91,8.13-6.29,8.89-11.35.55-2.39.27-4.78-.62-7.31ZM31.72,52.09c-3.69-4.65-6.08-9.02-6.9-12.71-.34-1.57-.41-2.94-.21-4.17.14-1.09.55-2.05,1.09-2.87,1.3-1.85,3.49-3.01,6.02-3.01s4.78,1.09,6.02,3.01c.55.82.96,1.78,1.09,2.87.21,1.23.14,2.67-.21,4.17-.82,3.62-3.21,8-6.9,12.71ZM58.99,55.3c-.48,3.55-2.87,6.63-6.22,8-1.64.68-3.42.89-5.19.68-1.71-.21-3.42-.75-5.19-1.78-2.46-1.37-4.92-3.49-7.79-6.63,4.51-5.54,7.25-10.59,8.27-15.11.48-2.12.55-4.03.34-5.81-.27-1.71-.89-3.28-1.85-4.65-2.12-3.08-5.67-4.85-9.64-4.85s-7.52,1.85-9.64,4.85c-.96,1.37-1.57,2.94-1.85,4.65-.27,1.78-.21,3.76.34,5.81,1.03,4.51,3.83,9.64,8.27,15.17-2.8,3.14-5.33,5.26-7.79,6.63-1.78,1.03-3.49,1.57-5.19,1.78-1.85.21-3.62-.07-5.19-.68-3.35-1.37-5.74-4.44-6.22-8-.21-1.71-.07-3.42.62-5.33.21-.68.55-1.37.89-2.19.48-1.09,1.03-2.26,1.57-3.42l.07-.14c4.72-10.18,9.77-20.57,15.04-30.69l.21-.41c.55-1.03,1.09-2.12,1.64-3.14.55-1.09,1.16-2.12,1.91-3.01,1.44-1.64,3.35-2.53,5.47-2.53s4.03.89,5.47,2.53c.75.89,1.37,1.91,1.91,3.01.55,1.03,1.09,2.12,1.64,3.14l.21.41c5.19,10.18,10.25,20.57,14.97,30.76v.07c.55,1.09,1.03,2.32,1.57,3.42.34.82.68,1.5.89,2.19.55,1.78.75,3.49.48,5.26Z"/></g></svg>