<?xml version="1.0" encoding="UTF-8"?><svg id="Capa_2" xmlns="http://www.w3.org/2000/svg" viewBox="0 0 160.57 48.58"><defs><style>.cls-1,.cls-2{stroke-width:0px;}.cls-2{fill-rule:evenodd;}</style></defs><g id="Capa_1-2"><path class="cls-2" d="M102.17,47.23c-.29.51-.33.72-.93.95-.24.04-.48.04-.73,0-.62-.22-.69-.59-.95-1.06L78.72,7.95c-.17-.31-.35-.61-.39-.97,0,0-.19-1.01.84-1.01,2.23,0,4.1.06,6.15.06.67-.01,1.08.19,1.39.72l13.34,25.71c.27.38.33.46.52.67.47.19.82.05,1.1-.48l13.03-24.88s.8-1.76,1.58-1.76c2.1,0,4.12.12,6.23.12.93,0,.93.73.88.92-.63,1.12-.9,1.69-1.15,2.26l-20.07,37.92Z"/><path class="cls-2" d="M136.72.99c.29-.51.33-.72.93-.95.24-.04.48-.04.73,0,.62.22.69.59.95,1.06l20.85,39.18c.17.31.35.61.39.97,0,0,.19,1.01-.84,1.01-2.23,0-4.1-.06-6.15-.06-.67.01-1.08-.19-1.39-.72l-13.34-25.71c-.27-.38-.33-.46-.52-.67-.47-.19-.82-.05-1.1.48l-13.03,24.88s-.8,1.76-1.58,1.76c-2.1,0-4.12-.12-6.23-.12-.93,0-.93-.73-.88-.92.63-1.12.9-1.69,1.15-2.26L136.72.99Z"/><path class="cls-1" d="M77.12,30.93c-.52-1.16-1.53-2.4-2.17-3.13-.95-.92-1.68-1.54-2.98-1.99.08-.21.21-.26.33-.33,1.03-.65,1.83-1.52,2.46-2.56.98-1.63,1.48-3.39,1.43-5.3-.13-.48.06-.96,0-1.45-.23-1.98-.93-3.77-2.1-5.38-.09-.12-.19-.23-.29-.33-.59-.56-1.12-1.19-1.79-1.67-.24-.18-.51-.34-.75-.52-1.01-.69-2.14-1.11-3.3-1.44-.19-.05-.38-.12-.57-.18-1.4-.3-2.81-.35-4.25-.33-6.3.06-12.61.03-18.92.03-.23,0-.47.03-.7-.05-.81-.27-1.65.48-1.42,1.31.15.35.19.71.19,1.08,0,12.01,0,24.02,0,36.03,0,1.03.07,2.07-.09,3.1.05.41.28.64.69.69,6.44.03,19.8.06,20.63.06,1.56,0,4.99-.45,5.9-.78,3.73-1.35,8.57-4.56,8.57-9.69.06-.56.4-4.53-.86-7.17ZM49.28,13.57c0-.78.27-1.05,1.06-1.05,4.17,0,8.34,0,12.51.02.78,0,6.18.53,6.23,5.37.03,3.38-1.66,5.53-4.53,5.53-1.36,0-12.03.02-14.21.02-.83,0-1.06-.22-1.06-1.02,0-2.96,0-5.91,0-8.87ZM66.68,41.89c-.64.16-6,.41-7.97.41q-4.13.01-8.25,0c-1,0-1.2-.2-1.2-1.2,0-3.42,0-6.85,0-10.27,0-1.02.23-1.25,1.23-1.25,2.31,0,5.41,0,8.11,0,1.96.04,6.49-.12,8.79.66,2.05.7,3.67,2.39,3.67,5.65,0,3.08-2.12,5.45-4.36,6Z"/><path class="cls-1" d="M35.05,30.64c-1.22-2.35-3.86-4.66-5.15-5.12.08-.21.21-.26.33-.33,1.03-.65,1.83-1.52,2.46-2.56.98-1.63,1.48-3.39,1.43-5.3-.13-.48.06-.96,0-1.45-.23-1.98-.93-3.77-2.1-5.38-.09-.12-.19-.23-.29-.33-.59-.56-1.12-1.19-1.79-1.67-.24-.18-.51-.34-.75-.52-1.01-.69-2.14-1.11-3.3-1.44-.19-.05-.38-.12-.57-.18-1.4-.3-2.81-.35-4.25-.33-6.3.06-12.61.03-18.92.03-.23,0-.47.03-.7-.05-.81-.27-1.65.48-1.42,1.31.15.35.19.71.19,1.08,0,12.01,0,24.02,0,36.03,0,1.03.07,2.07-.09,3.1.05.41.28.64.69.69,6.44.03,19.8.06,20.63.06,1.56,0,4.99-.45,5.9-.78,3.73-1.35,7.88-4.6,8.57-9.69.23-1.76.46-4.62-.86-7.17ZM7.21,13.28c0-.78.27-1.05,1.06-1.05,4.17,0,8.34,0,12.51.02.78,0,6.18.53,6.23,5.37.03,3.38-1.87,4.98-4.71,5.42-1.25.19-11.86.13-14.03.13-.83,0-1.06-.22-1.06-1.02,0-2.96,0-5.91,0-8.87ZM24.62,41.59c-.64.16-6,.41-7.97.41q-4.13.01-8.25,0c-1,0-1.2-.2-1.2-1.2,0-3.42,0-6.85,0-10.27,0-1.02.23-1.25,1.23-1.25,2.31,0,5.41,0,8.11,0,1.96.04,6.49-.12,8.79.66,2.05.7,3.67,2.39,3.67,5.65,0,3.08-2.12,5.45-4.36,6Z"/></g></svg>