<?xml version="1.0" encoding="UTF-8"?><svg id="Capa_2" xmlns="http://www.w3.org/2000/svg" viewBox="0 0 217.38 70.74"><defs><style>.cls-1{stroke-width:0px;}</style></defs><g id="Capa_1-2"><path class="cls-1" d="M6.34,29.29C12.58,17.74,23.36,5.15,36.09.94c2.61-.65,6.09-1.39,8.41.4,2.06,1.53,2.34,4.14,1.87,6.49-.61,2.78-2.52,6.31-5.71,6.75-.57,0-1.06-.2-1.43-.61-.83-.81-.77-1.98-.59-3.05.52-2.21,2.57-4.55,4.93-4.86.4-.26.23-.75.12-1.09-.31-.49-.69-.86-1.26-.98-2.55-.3-4.48,1.3-6.44,2.65-7.43,5.97-12.82,13.65-17.36,21.3-3.7,6.88-6.85,13.99-7.77,22.02-.45,5.83,1.4,11.54,6.58,14.35,5.62,2.98,12.89.96,18.52-.57l5.17-1.59,9.94-2.95c9.43-2.75,21.23-3.37,30.43.28,5.56,2.32,11.29,5.49,14.92,10.96,0,.14,0,.32-.17.29-7.89-2.15-18.16-4.28-25.98-.55l-.37-.09c-2.37-3.8-6.38-5.91-10.48-6.73-13.26-1.28-24.16,5-36.62,6.56-6.32.58-13.09.38-17.5-4.45-6.95-6.94-6.13-19.2-2.83-27.57,1.07-2.95,2.4-5.82,3.88-8.63Z"/><path class="cls-1" d="M24.64,33.43c3.29-6.05,8.34-13.43,15.33-15.65,1.87-.42,3.88-.25,5.31.99,3,3,1.84,8.13.82,11.66,0,.2.17.43.37.46,2.67-.08,4.83-1.33,6.76-3.16,4.15-4.64,8.59-10.71,15.34-9.99,1.26.21,2.49.93,3.15,2.11,1.71,3.39.03,7.15-2.3,9.75-.89.86-2.01,1.51-3.31,1.11-.52-.17-.95-.69-1.14-1.21-.48-2.38.91-4.59,2.83-5.85.55-.54,2.21-.16,1.76-1.4-.34-.49-.86-.55-1.41-.55-3.28,1.37-5.41,4.72-7.32,7.52-2.4,3.75-4.33,7.74-5.61,11.95-.35,1.52-.79,3.5.1,4.91.66.89,1.75,1.27,2.87.99,3.25-1.28,6.1-3.88,8.58-6.57,5.68-6.81,8.69-15.24,16.29-20.78,2.36-1.63,5.69-2.88,8.53-1.38.46.17.83.78,1.4.55.46-.46.78-1.43,1.7-1.2,2.1.04,4.51-.07,6.66.14l.14.2-.61,1.46-11.8,23.96c-.11.26-.15.6-.09.89.2.34.63.32.95.2,1.7-.97,3.02-2.77,4.21-4.29,1.04-1.43,1.96-2.92,2.71-4.5.32-.46.69-1.03,1.32-.94.66.09,1.49-.2,1.98.26-.75,2.01-1.94,3.84-2.98,5.73-3.2,4.93-7.39,10.65-13.28,12.12-.98.11-2.18.19-2.93-.53-1.15-.86-1.2-2.24-1.51-3.48-.11-.14-.32-.17-.49-.12-2.51,2.26-5.1,4.52-8.63,4.08-1.09-.23-2.12-1.07-2.6-2.1-.91-1.75-.47-4.02-.53-5.97-.08-.23-.37-.14-.49-.06-3.83,3.78-7.98,7.18-13.06,8.14-2.36.28-4.39-.42-5.96-2.09-3.8-4.98-.79-11.51,1.21-16.36.09-.23.06-.55-.23-.6-1.38.11-2.7.33-4.02.53l-.46.52c-3.09,5.73-6.44,11.8-12,16.06-2.3,1.66-5.72,2.79-8.42,1.26-2.81-1.93-3.05-5.38-2.7-8.56.67-3.61,1.98-6.97,3.54-10.21ZM33.43,33.14c-1.62,3.27-3.27,6.56-3.34,10.44.17.72.6,1.55,1.4,1.76.86.23,1.58-.22,2.24-.65,3.17-2.66,5.36-6.3,7.15-9.79.14-.34.4-.77.2-1.15-1.89-.75-3.72-2.05-5.18-3.69l-.32-.06c-.29.06-.4.34-.6.54l-1.56,2.61ZM38.36,26.5c.11,1.72,1.71,3.22,3.23,3.8.37.12.97.41,1.29-.05.58-1.09.93-2.29,1.22-3.5.29-1.58.53-3.7-.99-4.74-.52-.29-1.29-.32-1.84-.06-1.73.86-2.97,2.6-2.92,4.55ZM77.24,39.87c-.44,1.43-1.1,2.98-.65,4.56.14.32.49.55.8.63,1.29.03,2.16-1.14,2.99-2.06,3.78-5.24,6.67-10.88,9.27-16.62.43-1.2,1.13-2.32,1.1-3.67-.03-.29-.31-.49-.54-.63-.57-.26-1.12.14-1.58.37-5.09,3.92-7.84,9.53-10.39,14.86l-1.01,2.55Z"/><path class="cls-1" d="M101.78,25.14c1.13-2.23,2.08-4.56,3.5-6.68.58-.63,1.47-.6,2.24-.68l5.65.08.23.23c-.95,2.26-2,4.5-3.18,6.68-.29.57-.89,1.12-1.55,1.2-2.3.05-4.74.18-6.92-.02-.23-.23-.03-.55.03-.8Z"/><path class="cls-1" d="M107.45,36.62c3.93-8.14,8.67-15.99,15.38-22.91,6.51-6.49,13.56-11.75,22.09-13.36,2.33-.34,4.94-.13,6.71,1.46.34.29.74.58,1.23.41,6.12-2.45,14.62-3.31,20.76-.24,3.55,1.74,6.93,3.96,10.34,6.09.43.23.23.69,0,.95-1.96,2.17-3.6,4.41-5.36,6.67-.2.2-.52.11-.72,0l-9.02-6.2c-4.21-2.86-9.05-4.85-14.54-3.95-.6.31-.32,1.06-.41,1.64.12,5.63-1.87,10.53-4.59,15-2.16,3.12-4.67,6.39-8.35,7.43-1.61.34-3.16-.15-4.13-1.45-2.68-4.09-.31-9.07,1.65-12.71,2.25-3.95,5.74-7.67,9.51-10.53.09-.14.26-.29.14-.46-.37-.37-1-.15-1.46-.06-6.12,2.05-11.02,7.45-15.55,12.58-8.07,9.93-14.19,20.71-17.68,32.55-1.08,4.45-2.54,11.27,1.99,14.39,3.98,2.14,7.81-.61,10.8-3.18,4.55-4.64,7.61-9.99,8.87-16.05.21-1.81.7-4.27-.96-5.51-1.49-.67-2.73.56-3.74,1.59-2.34,2.81-3.32,6.16-3.74,9.78-1.04.86-2.27,1.4-3.37,2.23-2.07,1.43-4.12,3.34-5.76,5.26-.2.06-.23-.17-.29-.29-.24-6.66,2.14-12.37,5.8-17.49,2.91-3.38,6.65-6.26,11.18-5.19,1.98.52,3.29,2.62,3.66,4.49.72,6.26-1.91,11.74-4.74,16.83-4.56,7.16-11.76,14.4-20.89,13.53-3.5-.21-6.77-2.64-8.25-5.86-3.45-6.87-1.06-15.71,1.25-22.36l2.14-5.07ZM138.5,24.75c.08.78.4,1.61,1.2,1.9,1.55.44,2.79-.71,3.94-1.59,4.15-4.38,6.66-9.45,7.32-15.28,0-.86.29-1.95-.19-2.7-.34-.06-.72.08-1.01.28-2.79,1.86-5.41,4.57-7.32,7.32-1.99,3.07-3.81,6.22-3.94,10.06Z"/><path class="cls-1" d="M144.31,44.24c3.32-4.38,7.73-9.16,13.3-9.51,1.41.03,2.64.61,3.5,1.79,2.37,3.51.37,8.01-.5,11.57-.09.32.14.55.37.63,1.15.18,2.47,0,3.48-.5l.43-.54c4-11.41,9.95-22.01,17.02-32.12,4.41-5.84,10.06-11.88,16.62-14.7,1.55-.54,3.79-1.19,5.28-.04,1.66,1.35,1.19,3.71.76,5.51-.18,1.61-1.96,1.77-3.14,2.14-.06-.03-.12,0-.17-.06.03-1.03.58-1.95.79-2.95.06-.55.15-1-.08-1.52-.28-.52-.92-.35-1.35-.2-2.21,1.08-4,3.06-5.7,4.98-6.34,7.36-10.93,15.52-15.15,23.77-1.39,2.87-2.83,5.7-3.96,8.68-.03.17.03.29.17.4.98-.02,1.55-1.03,2.3-1.54,5.59-5.06,10.11-10.87,14.3-16.77.89-.43,1.93-.42,2.96-.51l.2.06c-.06.8-.75,1.43-1.13,2.15-4.67,6.73-9.98,13.17-16.43,19.03l-4.66,3.83c-.98.86-1.01,2.18-1.5,3.27-.9,2.95-1.8,5.96-1.93,9.21.03.55.23,1.06.68,1.35,1.23.55,2.21-.62,3.08-1.42,6.31-7.3,9.1-16.25,16.81-22.79,2.53-2,5.87-3.71,9.14-2.21.57.2,1,.95,1.69.61.49-.34.52-1.12,1.21-1.09,2.27-.02,4.68-.1,6.86.08.2.17.06.46,0,.66l-1.56,3.15-9.66,19.49c-.43.89-1.01,1.83-.96,2.84.14.43.6.46.97.38,1.81-1,3.14-2.66,4.32-4.35,1.18-1.66,2.14-3.41,3.26-5.1.6-.28,1.44-.17,2.1-.08.4.37-.12.86-.2,1.29-2.83,5.88-6.79,12.29-12.97,15.54-1.44.71-3.42,1.37-5,.5-1.26-.87-1.14-2.44-1.71-3.65-.11-.17-.4-.14-.55-.06-2.56,2.29-5.33,4.86-8.91,3.87-2.24-1.04-2.49-3.63-2.65-5.84-.11-.09-.06-.26-.2-.35l-.29.11c-2.51,3.01-5.68,6.76-9.9,6.4-1.61-.12-3.01-1.68-3.49-3.11-1.48-4.68.09-9.82,1.14-14.32,0-.26-.29-.52-.51-.55l-3.53.05-.58.66c-2.6,5.1-5.46,10.03-9.95,14.29-2.36,2.09-5.27,3.83-8.51,2.87-2.69-1.16-3.4-4.09-3.39-6.84.57-6.94,3.69-12.82,7.5-18.43ZM145.24,59.83c.05.98.54,1.98,1.54,2.3.66.23,1.38-.05,1.95-.34,3.31-2.46,5.27-6.24,7.07-9.68.17-.34.32-.89-.14-1.15-1.72-.87-3.38-2.22-4.75-3.75-.17-.17-.49-.2-.69-.09-1.24,1.66-2.05,3.5-2.92,5.33-.98,2.32-2.05,4.61-2.06,7.37ZM153.56,43.72c.11,1.75,1.51,3.39,3.12,3.97.32.12.89.26,1.12-.14.98-2.24,1.91-4.79,1.4-7.37-.2-.6-.71-1.21-1.34-1.41-.63-.17-1.29.02-1.84.28-1.61,1.06-2.39,2.81-2.46,4.67ZM185.2,59.05c-.06.83-.27,1.87.36,2.5.34.35.89.38,1.32.23,1.7-.88,2.79-2.69,3.83-4.18,3.46-5.39,6.01-11.15,8.38-16.99.09-.52.23-1.23-.25-1.58-1.4-.67-2.5.88-3.54,1.62-4.58,4.55-7.01,10.05-9.3,15.58l-.81,2.81Z"/><path class="cls-1" d="M191.89,16.24l3.06-3.95.46-.4c8.84-.17,15.75-5.43,21.97-11.64-.03.83-.41,1.61-.7,2.35-4.08,9.6-13.98,18.04-24.69,18.17l-2.53-.04c-.46-.12-.14-.57-.03-.8l2.45-3.7Z"/><path class="cls-1" d="M203.04,66.92c0-1.2.91-2.11,2.07-2.11s2.05.91,2.05,2.11-.91,2.12-2.05,2.12-2.07-.9-2.07-2.12ZM205.11,69.47c1.38,0,2.56-1.07,2.56-2.54s-1.18-2.53-2.56-2.53-2.58,1.07-2.58,2.53,1.18,2.54,2.58,2.54ZM204.57,67.12h.51l.77,1.27h.5l-.83-1.29c.43-.05.76-.28.76-.81,0-.58-.34-.83-1.03-.83h-1.11v2.93h.44v-1.27ZM204.57,66.75v-.91h.6c.31,0,.64.07.64.43,0,.45-.34.48-.71.48h-.53Z"/></g></svg>