<?xml version="1.0" encoding="UTF-8"?><svg id="Capa_2" xmlns="http://www.w3.org/2000/svg" viewBox="0 0 175.75 28.85"><defs><style>.cls-1{fill:#1d1d1b;fill-rule:evenodd;stroke-width:0px;}</style></defs><g id="Capa_1-2"><polygon class="cls-1" points="61.13 6.65 61.13 1.62 51.96 1.62 51.96 6.65 61.13 6.65 61.13 6.65"/><polygon class="cls-1" points="61.13 28.5 61.13 8.36 51.96 8.36 51.96 28.5 61.13 28.5 61.13 28.5"/><polygon class="cls-1" points="89.89 6.65 89.89 1.62 80.72 1.62 80.72 6.65 89.89 6.65 89.89 6.65"/><polygon class="cls-1" points="89.89 28.5 89.89 8.36 80.72 8.36 80.72 28.5 89.89 28.5 89.89 28.5"/><path class="cls-1" d="M36.32,8.36h-9.17v14.2c.09,5.57,7.91,8.36,14.2,4.49v1.44h8.36V8.36h-9.17v11.78c0,2.43-4.22,2.88-4.22-.09v-11.69h0Z"/><path class="cls-1" d="M105.35,28.5h8.72v-14.2c0-7.19-7.46-8.36-13.75-4.49v-1.44h-8.36v20.14h8.81v-12.49c0-2.43,4.58-2.88,4.58.09v12.4h0Z"/><path class="cls-1" d="M25.08,7.91l-1.26-7.37C22.74.09,18.79.06,17.44,0,15.46-.09,0,2.16,0,14.03c-.09,8.72,11.6,17.08,24.54,13.57l.99-7.37c-1.35.81-4.85,1.17-5.93,1.17s-9.26-.99-9.35-7.55c-.09-6.56,9.62-8.18,14.83-5.93h0Z"/><path class="cls-1" d="M150.12,9.96v-1.6h-8v20.14h8.36v-9.89c0-1.98,1.35-3.87,6.38-3.33v-6.92c-1.98,0-5.17.22-6.74,1.6h0Z"/><path class="cls-1" d="M160.36,6.2v2.16h-2.07v6.38h2.07v8c.09,2.52,2.07,7.19,11.24,5.75l1.26-6.47h-2.43c-.72,0-1.17-.36-1.17-1.08v-6.2h3.15v-6.38h-3.15V2.88l-8.9,3.33h0Z"/><path class="cls-1" d="M173.82,16.83c.86,0,1.54.68,1.54,1.58s-.68,1.59-1.54,1.59-1.55-.67-1.55-1.59.68-1.58,1.55-1.58v-.32c-1.05,0-1.93.81-1.93,1.9s.89,1.91,1.93,1.91,1.92-.81,1.92-1.91-.89-1.9-1.92-1.9v.32h0Z"/><path class="cls-1" d="M173.42,17.6h.45c.23,0,.48.05.48.32,0,.34-.25.36-.53.36h-.4v.28h.38l.58.95h.37l-.62-.97c.32-.04.57-.21.57-.6,0-.43-.26-.62-.78-.62h-.84v2.2h.33v-1.91h0Z"/><path class="cls-1" d="M129.8,15.64c-3.78-2.07-14.29-.63-14.29,5.3s7.19,7.55,9.08,7.55,5.3-.54,6.29-1.89v1.89h9.17v-12.23c0-6.83-6.65-7.91-9.62-7.91h-10.07l-.99,4.49c.72-.45,3.33-.63,6.65-.54,3.33.09,4.05,2.07,3.78,3.33h0ZM127.91,19.24c1.54,0,2.8.97,2.8,2.16s-1.25,2.16-2.8,2.16-2.8-.97-2.8-2.16,1.25-2.16,2.8-2.16h0Z"/><path class="cls-1" d="M78.12,8.36h-8.54c-2.34,0-5.75.45-6.38,3.24-.63,2.79.18,4.85,2.34,6.11,2.16,1.26,4.1,2.56,3.78,3.69-.36,1.26-4.23,1.08-6.2.18v5.57c2.16.99,5.93,1.35,7.55,1.35s6.92-1.53,8-4.4c1.08-2.88-.81-5.21-2.79-6.2-1.98-.99-4.05-2.07-3.33-3.51.72-1.44,4.4-.81,5.57-.72v-5.3h0Z"/></g></svg>