<?xml version="1.0" encoding="UTF-8"?><svg id="Capa_2" xmlns="http://www.w3.org/2000/svg" viewBox="0 0 200.83 74.8"><defs><style>.cls-1{fill-rule:evenodd;stroke-width:0px;}</style></defs><g id="Capa_1-2"><path class="cls-1" d="M36.76,46.22v-.5c0-7.55,7.37-17.98,14.68-17.98,2.61,0,4.32,1.79,4.32,4.42,0,5.74-4.16,11.17-10.44,15.25.44.6.86.76,1.63.76,2.53,0,6.53-2.37,9.5-4.66l.08-.34c1.1-7.35,3.82-14.66,9.16-21.77,5.42-7.21,11.97-11.97,16.21-11.97,2.45,0,3.9,1.71,3.9,3.66,0,7.97-12.39,22.21-21.13,30.25l.1.44c.32,1.43,1.35,2.29,2.79,2.29,3.05,0,5.76-1.53,9.5-4.34l.08-.34c1.45-7.69,4.42-14.82,10.61-23.04,6.11-8.15,13.22-13.84,17.11-13.84,2.37,0,3.58,1.53,3.58,3.47,0,7.05-11.35,24.87-23.9,35.19v.34c.16,2.11,1.95,3.56,3.82,3.56.92,0,1.53-.16,2.79-.92.16.34.16.58.16,1.02,0,4.74-4.32,8.4-7.71,8.4-3.98,0-5.84-2.55-6.53-6.37l-.34.26c-6.27,3.98-8.58,5.42-12.89,5.42-3.21,0-5.42-2.13-6.71-5.18l-.24.18c-5.26,3.55-7.73,5-12.31,5-3.39,0-4.74-1.1-6.53-3.39l-.24.08c-1.1.42-2.21.6-3.23.6-1.69,0-2.87-1.02-2.87-2.29s0-1.29,5.08-3.66h0ZM85.58,34.45l-.08.26c7.11-6.87,13.74-16.29,13.74-19,0-.52-.26-.86-.6-.86-3.21,0-10.6,12.13-13.06,19.6h0ZM64.61,36.07l-.08.42c7.63-7.05,12.87-16.29,12.87-17.47,0-.52-.32-.86-.66-.86-1.45,0-4.76,3.74-7.55,7.81-2.55,3.82-3.9,6.71-4.58,10.1h0ZM43.85,42.32v.44c2.13-1.29,6.03-5.34,6.03-7.95,0-.42-.16-.68-.76-.68-2.37,0-5.08,5.14-5.26,8.19h0Z"/><path class="cls-1" d="M156.56,52.56l1.79-2.87-.26.16c-4,2.63-4.66,3.05-6.79,3.05-3.47,0-5.76-2.21-5.76-5.52,0-8.82,12.21-18.8,21.21-18.8,1.43,0,2.79.42,2.79,1.79,0,2.53-14.5,5.93-14.5,12.53,0,.84.58,1.61,1.87,1.61,5.76,0,8.05-11.95,13.14-11.95,1.63,0,2.63,1.1,2.63,2.29,0,1.97-1.45,4.74-5.84,11.69l.16-.08c12.81-7.97,21.97-20.17,30.29-20.17,2.29,0,3.56,1.27,3.56,3.66,0,4.74-6.01,0-6.01,7.37,0,1.08.08,2.53.08,3.64,0,7.37-6.37,16.03-13.92,16.03-4.32,0-7.29-2.39-7.29-6.29,0-.68.16-1.61.68-3.13l-.26.16c-2.89,2.05-8.4,6.03-12.13,7.63-.68,1.02-2.45,4.26-3.9,6.37-1.45,2.13-2.97,4.08-4.58,5.76-4.08,4.34-9,7.31-12.55,7.31-2.47,0-4.68-2.13-4.68-4.92,0-3.31,2.55-7.73,7.65-11.21,3.39-2.37,6.11-2.87,12.63-6.11h0ZM188.62,36.13l-10.28,8.56c.6-.1,1.1-.18,1.45-.18,3.15,0,1.45,3.58,3.58,3.58,2.95,0,5-5.86,5.26-11.53v-.42h0ZM152.65,59.67l.16-.24c-4.16,2.11-9.34,4.82-9.34,7.53,0,.52.44.86.86.86,1.1,0,5.84-3.58,8.32-8.15h0Z"/><path class="cls-1" d="M124.91,36.45h-.24c-3.92,0-5.36-.68-6.63-.68-1.95,0,0,4.48-5.68,12.71-3.64,5.34-7.45,7.47-11.61,7.47-5,0-7.63-3.31-7.63-7.89,0-8.4,8.4-18.56,16.53-18.56,1.53,0,2.71.84,2.71,2.11,0,1.45-9.84,6.19-9.84,12.63,0,1.35.94,2.37,2.47,2.37,6.95,0,5.42-16.09,10.95-16.09,2.19,0,5,1.69,8.64,1.69,5.34,0,10.1-3.23,12.98-3.23,1.79,0,2.73.6,2.73,1.87,0,2.63-12.55,6.61-12.55,13.3,0,.86.58,1.45,1.77,1.45,6.53,0,7.97-15.75,15.61-15.75,1.19,0,2.39.92,2.39,2.71s-1.02,4.24-4.26,9.3c-2.87,4.68-3.48,5.02-5.58,8.74,2.53-.84,4.82-4.06,5.92-4.06.42,0,.68.5.68,1.1,0,3.98-6.61,8.64-11.03,10.42-5.42,7.39-12.29,16.55-20.53,16.55-2.55,0-4.74-1.97-4.74-4.68,0-8.48,10.77-12.45,20.85-16.11l2.47-4-.26.18c-2.45,1.61-5.68,2.79-7.63,2.79-3.31,0-5.34-2.11-5.34-5.5,0-3.66,2.03-6.21,6.87-10.85h0ZM124.41,60.7l.18-.26c-2.97.92-9.18,4.16-9.18,6.53,0,.52.44.94,1.02.94,1.53,0,4.92-2.89,7.97-7.21h0Z"/><path class="cls-1" d="M24.62,32.56c.52,1.18.76,1.79.76,2.81,0,3.8-4.92,9.98-4.92,18.12,0,4.84,3.15,8.84,8.07,8.84,2.71,0,5.42-1.71,5.68-3.66-2.39,0-3.66-1.87-3.66-4.08,0-5,3.47-13.56,3.47-18.64,0-1.87-.42-2.79-1.27-4.4l-.18-.26c9.34-4.92,15.79-10.18,21.13-15.18,5.08-4.76,7.29-8.05,7.29-11.45,0-3.05-1.53-4.66-4.24-4.66-7.47,0-14.34,20.43-29,27.48l-3.15,5.08h0Z"/><path class="cls-1" d="M21.81,23.34c0,3.13-9.68,13.06-11.11,14.3C2.21,45.45,0,47.58,0,51.82c0,2.63,1.87,4.5,4.42,4.5,5.52,0,8.74-4.84,17.66-21.11,12.37-22.66,14.24-21.71,14.24-24.6,0-1.1-.76-1.69-1.61-1.69-3.23,0-5.86,3.39-18.08,9.74C5.68,24.34,1.63,27.32,1.63,31.55c0,2.39,1.45,4.16,3.64,4.16,6.55,0,11.71-12.89,16.05-12.89.32,0,.5.18.5.52h0Z"/><path class="cls-1" d="M176.55,21.13c0,2.95,2.63,2.71,2.63,4.48,0,1.37-1.61,2.47-1.61,3.39,0,.52.6.86,1.29.86,4.14,0,8.05-6.11,8.05-9.34,0-2.63-2.29-4.74-4.92-4.74-2.97,0-5.44,2.53-5.44,5.34h0Z"/><path class="cls-1" d="M197.96,50.29c1.1,0,2.13.84,2.13,2.03s-1.1,2.05-2.13,2.05c-1.1,0-2.11-.86-2.11-2.05s1-2.03,2.11-2.03h0ZM197.94,50.64c-1,0-1.79.76-1.79,1.69s.78,1.71,1.79,1.71c.84,0,1.79-.68,1.79-1.71,0-.92-.84-1.69-1.79-1.69h0ZM197.48,52.46v.9h-.28v-2.13h.98c.34,0,.68.12.68.58,0,.3-.16.42-.28.5.12.06.24.1.24.4l.02.38c0,.12.02.16.12.22v.04h-.36c-.04-.12-.04-.44-.04-.52,0-.18-.04-.38-.38-.38h-.7ZM197.48,51.48v.72h.66c.22,0,.44-.04.44-.36s-.24-.36-.38-.36h-.72Z"/></g></svg>