<?xml version="1.0" encoding="UTF-8"?><svg id="Capa_2" xmlns="http://www.w3.org/2000/svg" viewBox="0 0 356.86 60.83"><defs><style>.cls-1{fill:none;stroke:#000;stroke-miterlimit:45.84;stroke-width:2.42px;}.cls-2{fill-rule:evenodd;stroke-width:0px;}</style></defs><g id="Capa_1-2"><path class="cls-2" d="M44.76,29.24h-13.09V12.78c0-.9-.71-1.64-1.61-1.65-.89,0-1.61.74-1.61,1.65v16.46h-13.09c-1.13,0-2.06.95-2.06,2.1v14.93c0,1.16.93,2.1,2.06,2.1h29.4c1.13,0,2.06-.94,2.06-2.1v-14.93c0-1.15-.93-2.1-2.06-2.1"/><path class="cls-2" d="M50.21,16.07c.53.44.35.64.02,1.11-1.09,1.55-3,3.82-3.14,5.16-.16,1.52.31,3.75-1.38,5.31-.7-.04-8.98,0-8.98,0,1.65-2.14,3.65-5.97,6.83-6.82,1.97-.53,3.34-2.85,4.6-4.72.65-.97,1.14-.78,2.04-.04"/><path class="cls-2" d="M40.85,19.99c-1.34.85-2.15,1.78-2.91,2.72-1.71,2.16-3.56,4.94-3.56,4.94h-.85c1.16-4.2-.72-7.08,1.1-8.21,1.22-.76,1.79.43,3.53-.46,2.17-1.11,2.7,1.01,2.7,1.01M51.93,23.78c.29.15.42.53.36.85-.25,1.27,1.58,2.3.25,3.27-1.33.96-.98,1.58-1.75,1.58-.97,0-.48-1.19-2.64-1.83.47-.84.72-1.18.82-3.7.96-.53,2.19-.59,2.97-.17M16.73,16.09c2.13-1.36,1.76,1.78,2.77,1.16.54-.33,1.05-.06,1.12.35.15,1.02-1.12,2.82-1.07,3.95,0,.05-.03.09-.08.1,0,0-.01,0-.02,0-.22-.03-.37-.02-1.15.18-.7.18-1.53.75-1.53.75-1.03-.36-1.98-.94-3.04-1.53-.78-.43-.97-.77-.98-1.41,0-.78.6-.94.36-1.45-.33-.71-.65-1.54-.28-2.23.21-.34.63-.71,1.05-.69,1.45-.03,1.66,1.6,2.85.83M11.13,18.98c.1.2.14.3.03.52-.39.72-.07,1.49.44,2.21.85,1.19,3.29,1.87,4.4,2.23l-.31.98c-2.52-.66-4.09-.45-5.98.03,0,0-1.06.47-1.72-.14-.66-.61-.35-1.37,0-1.68,0,0-1.49-.94-.82-2.33.52-1.09,1.53-.93,1.53-.93,0,0-.24-1.2.83-1.75.65-.33,1.21.08,1.21.08.17.38.29.58.39.79M15.3,26.57v1.09c-2.37-.08-3.43.76-4.03,2.63-.66,2.49-4.65,1.44-3.3-1.92,1.03-2.37,4.75-2.62,7.34-1.81"/><path class="cls-2" d="M26.72,22.55c-.9-.05-1.83.18-2.48.67-1.92-1.22-3.34-.91-3.19-1.14.81-1.23,3.37-2.28,5.68-1.19,0,0,.03,1.28-.01,1.66M22.97,24.09c-.12.12-.23.24-.35.37-1.15,1.26-1.25,3.08-1.25,3.08h-4.45c-.11-.62-.11-1.33,0-1.81.37-1.68,1.47-2.5,3.26-2.5.99,0,2,.26,2.78.73.05.03.05.1.01.14M26.74,27.65h-3.75c.11-2.04,1.35-3.24,2.31-3.54.34-.11.91-.2,1.44-.2v3.74Z"/><ellipse class="cls-1" cx="30.63" cy="30.41" rx="29.42" ry="29.21"/><path class="cls-2" d="M91,28.17l-4.62-10.51c-.88-2.14-2.94-3.52-5.13-3.52-2.66,0-4.53,1.85-5.04,4.9l-3.55,20.3c-.05.43-.08.86-.09,1.29,0,3.33,2.15,5.7,5.18,5.7,2.66,0,4.62-1.85,5.13-4.9l.84-5.04,2.05,5.66c1.07,2.95,2.71,4.28,5.22,4.28s4.25-1.47,5.27-4.33l2.01-5.61,1.17,5.94c.42,2.38,2.47,3.99,5.08,3.99,2.8,0,5.04-2.24,5.04-5.09,0-.48-.05-1.09-.19-1.76l-3.55-20.45c-.28-1.71-.7-2.61-1.59-3.47-.89-.86-2.29-1.43-3.55-1.43-1.91,0-3.73,1.14-4.52,2.8l-5.18,11.22h0ZM121.86,36.3v-2.38h3.69c1.63,0,2.38-.19,3.17-.81.87-.75,1.36-1.85,1.35-3,0-2.24-1.63-3.76-4.15-3.76h-4.06v-2.19h5.13c1.91,0,2.99-.34,3.92-1.14,1.07-.9,1.68-2.33,1.68-3.85,0-2.19-1.4-3.99-3.54-4.56-.7-.19-.98-.24-3.92-.24h-6.16c-3.03,0-3.27.05-4.43.52-1.07.48-2.05,1.43-2.47,2.62-.42,1-.47,1.33-.47,3.99v17.21c0,2.19.05,2.47.19,3.14.33,1.85,1.35,3.14,2.94,3.8.89.33,1.54.43,3.92.43h7.98c2.33,0,3.22-.24,4.24-1.09,1.03-.9,1.68-2.33,1.68-3.8s-.61-2.76-1.68-3.71c-1.07-.9-2.05-1.19-4.29-1.19h-4.71ZM146.16,24.08c.47.05.84.05,1.07.05,1.54-.05,2.38.57,2.38,1.71s-.79,1.71-2.33,1.66h-1.12v-3.42h0ZM156.38,33.88c2.38-2.71,3.31-5.04,3.31-8.08,0-5.14-3.36-9.56-8.16-10.94-1.35-.33-2.47-.48-4.99-.48h-4.29c-2.47,0-3.5.33-4.67,1.38-1.21,1.09-1.68,2.38-1.68,4.66v19.54c0,2,.37,3.38,1.21,4.47.93,1.19,2.47,1.9,4.01,1.9,2.85,0,5.04-2.28,5.04-5.28v-4.33l4.25,7.18c.93,1.57,2.42,2.43,4.24,2.43,2.89,0,5.13-2.24,5.13-5.14-.01-1.19-.35-2.36-.98-3.38l-2.43-3.95ZM193.09,36.87c0-2.71-2.43-5.14-5.13-5.14-1.31,0-2.71.62-3.54,1.52l-1.07,1.14c-1.21,1.33-2.89,2.09-4.57,2.09-3.36,0-6.06-2.76-6.06-6.18s2.71-6.18,6.11-6.18c1.68,0,3.31.67,4.43,1.9l1.49,1.67c.7.76,2.01,1.28,3.22,1.28,2.85,0,5.13-2.38,5.13-5.23,0-2.09-1.26-4.23-3.78-6.28-2.99-2.52-6.63-3.85-10.4-3.85-9.1,0-16.52,7.47-16.52,16.69s7.37,16.59,16.47,16.59c3.97,0,7.84-1.52,10.87-4.18,2.19-1.95,3.36-3.95,3.36-5.85M209.55,34.4l1.59-3.8,1.59,3.8h-3.17ZM206.43,41.96h9.52c1.45,3.23,2.84,4.38,5.22,4.38,2.86,0,5.17-2.33,5.18-5.18,0-.81-.19-1.71-.61-2.52l-9.8-21.3c-.93-2-2.7-3.18-4.8-3.18s-3.83,1.19-4.71,3.14l-9.75,21.07c-.42.86-.64,1.8-.66,2.76,0,2.95,2.24,5.23,5.09,5.23,2.47,0,4.01-1.28,5.32-4.38h0ZM239.07,24.13h.84c1.92,0,2.99.19,3.97.67,2.01,1,3.31,3.14,3.31,5.47,0,1.95-.98,3.9-2.52,5.04-1.21.86-2.05,1-5.6,1.05v-12.22ZM234.69,14.38c-2.99,0-4.9,1.19-5.64,3.47-.23.71-.23,1-.23,3.66v17.45c0,2.19,0,2.71.19,3.42.33,1.24.98,2.09,2.15,2.85.93.67,1.91.85,4.34.85h4.34c2.15,0,4.01-.14,5.27-.38,2.75-.59,5.28-1.93,7.33-3.85,3.17-3,4.99-7.28,4.99-11.65s-1.87-8.84-5.13-11.79c-3.03-2.76-6.63-4.04-11.29-4.04h-6.3ZM270.55,30.22c0-3.38,2.75-6.09,6.11-6.09s6.11,2.76,6.11,6.13-2.75,6.28-6.11,6.28-6.11-2.85-6.11-6.32M260.24,30.07c0,9.37,7.28,16.83,16.42,16.83s16.37-7.51,16.37-16.69-7.32-16.6-16.42-16.6-16.38,7.32-16.38,16.45M313.3,26.46l-8.16-10.22c-1.17-1.47-2.33-2.09-3.83-2.09-3.22,0-5.37,2.23-5.37,5.61v20.07c0,2.33.23,3.28,1.07,4.47.98,1.28,2.49,2.04,4.11,2.05,1.54,0,2.99-.72,3.97-1.9.89-1.14,1.17-2.09,1.17-4.18v-6.66l8.12,10.6c1.07,1.43,2.43,2.14,4.06,2.14s3.08-.72,4.01-1.95c.89-1.19,1.12-2.24,1.12-4.76v-19.4c0-1.95-.33-3.04-1.21-4.19-.98-1.19-2.38-1.9-3.92-1.9-1.68,0-3.31.9-4.2,2.28-.75,1.09-.93,2.04-.93,4.14v5.9ZM340.07,34.4l1.58-3.8,1.59,3.8h-3.17ZM336.94,41.96h9.52c1.45,3.23,2.84,4.38,5.22,4.38,2.86,0,5.17-2.33,5.18-5.18,0-.81-.19-1.71-.61-2.52l-9.8-21.3c-.93-2-2.7-3.18-4.81-3.18s-3.82,1.19-4.71,3.14l-9.75,21.07c-.42.86-.64,1.8-.66,2.76,0,2.95,2.24,5.23,5.09,5.23,2.47,0,4.01-1.28,5.32-4.38h0Z"/></g></svg>