<?xml version="1.0" encoding="UTF-8"?><svg id="Capa_2" xmlns="http://www.w3.org/2000/svg" viewBox="0 0 187.09 47.21"><defs><style>.cls-1{fill:#1d1d1b;fill-rule:evenodd;stroke-width:0px;}</style></defs><g id="Capa_1-2"><path class="cls-1" d="M73.66,29.36c0-9.8-7.01-17.75-16.37-17.75s-16.94,7.95-16.94,17.75,7.58,17.75,16.94,17.75c8.7,0,13.69-4.48,15.89-11.59h0l-7.76-.03h0c-1.72,3.42-4.98,4.96-8.13,4.96-4.2,0-7.74-3.49-8.77-8.23h24.92c.14-.93.22-1.88.22-2.86h0ZM48.67,25.87c1.19-4.43,4.6-7.64,8.62-7.64s7.27,3.25,8.06,7.65h-16.68Z"/><path class="cls-1" d="M182.94,35.52c-2.3,0-4.15,1.85-4.15,4.15s1.85,4.15,4.15,4.15,4.15-1.85,4.15-4.15-1.85-4.15-4.15-4.15h0ZM182.95,43.45c-2.12,0-3.74-1.69-3.74-3.78s1.6-3.78,3.74-3.78,3.72,1.65,3.72,3.77-1.6,3.79-3.72,3.79h0Z"/><path class="cls-1" d="M175.13,29.36c0-9.8-7.01-17.75-16.37-17.75s-16.94,7.95-16.94,17.75,7.58,17.75,16.94,17.75c8.7,0,14.12-3.84,15.89-11.59h0l-7.76-.03h0c-1.72,3.42-4.98,4.96-8.13,4.96-4.2,0-7.74-3.49-8.77-8.23h24.92c.14-.93.22-1.88.22-2.86h0ZM150.14,25.87c1.19-4.43,4.6-7.64,8.62-7.64s7.27,3.25,8.06,7.65h-16.68Z"/><polygon class="cls-1" points="104.72 .54 27.92 .54 27.92 32.48 27.79 32.48 8.63 .54 0 .54 0 46.16 8.78 46.16 8.78 16.17 8.91 16.17 27.29 46.16 36.7 46.16 36.7 7.09 104.76 7.09 104.72 .54 104.72 .54 104.72 .54"/><path class="cls-1" d="M84.29,21.13c.03-1.44,1.63-4.12,6.39-4.12,5.43,0,6.52,3.83,6.9,5.1h7.31c-.69-8.56-8.19-11.04-14.71-11.04-10.42,0-13.49,6.7-13.49,11.6,0,12.49,21.28,7.4,21.28,14.29,0,2.95-1.85,4.16-7.3,4.16s-7.28-2.78-7.28-5.61h-7.04c.25,8.91,7.04,11.69,14.64,11.69,6.55,0,15.05-1.9,15.05-11.62,0-12.92-21.9-7.93-21.75-14.45h0Z"/><path class="cls-1" d="M117.99.46h-8.36v12.74h-2.52v6.27h2.52v14.28h0c0,4.33,3.38,12.21,10.97,12.21,1.45-.02,5.27-.13,5.27-.13h0v-5.94l-1.82-.02h0c-3.14-.14-6.06-1.85-6.06-7.26h0v-13.14h7.88v-6.27h-7.88V.46h0Z"/><polygon class="cls-1" points="129.64 46.16 138.42 46.16 138.42 .54 129.64 .54 129.64 46.16 129.64 46.16 129.64 46.16"/><polygon class="cls-1" points="173.16 0 143.5 3.28 143.5 6.99 173.16 6.99 173.16 0 173.16 0 173.16 0"/><path class="cls-1" d="M183.6,39.87c.7-.11,1.27-.5,1.27-1.3,0-.89-.49-1.35-1.6-1.35h-1.84v4.9h.42v-2.26h1.28l1.48,2.26h.47l-1.46-2.25h0ZM182.89,39.49h-1.04v-1.91h1.35c.59,0,1.24.22,1.24.98,0,.85-.81.93-1.55.93h0Z"/></g></svg>