<?xml version="1.0" encoding="UTF-8"?><svg id="Capa_2" xmlns="http://www.w3.org/2000/svg" xmlns:xlink="http://www.w3.org/1999/xlink" viewBox="0 0 213 45.04"><defs><style>.cls-1{clip-path:url(#clippath);}.cls-2{fill:none;}.cls-2,.cls-3{stroke-width:0px;}</style><clipPath id="clippath"><polyline class="cls-2" points="0 0 212.57 0 212.57 45.04 0 45.04 0 0"/></clipPath></defs><g id="Capa_1-2"><g class="cls-1"><path class="cls-3" d="M212.33,44.92c.37,0,.67-.3.67-.67v-4.64c0-.37-.3-.67-.67-.67h-6.19c-1.45,0-5.28-.07-7.38-1.11-.69-.34-1.21-.72-1.55-1.18-.32-.42-.47-.95-.47-1.6V.74c0-.37-.3-.67-.67-.67h-13.52c-.37,0-.66.3-.66.67v33.22c0,1.76.4,3.38,1.16,4.52.83,1.22,2.08,2.46,3.75,3.37,5.11,2.78,14.14,3.1,17.65,3.08h7.89"/></g><path class="cls-3" d="M31.23,44.73c.37,0,.67-.3.67-.67V6.14h16.4c.37,0,.67-.3.67-.67V.83c0-.37-.3-.67-.67-.67H.67C.3.16,0,.46,0,.83v4.64c0,.37.3.67.67.67h16.37v37.91c0,.37.3.67.67.67h13.52"/><path class="cls-3" d="M75.89,22.52c0,.65-.16,1.18-.48,1.6-.34.45-.86.84-1.55,1.18-2.11,1.03-5.93,1.11-7.38,1.11h-11.79v-5.18c0-.65.16-1.18.47-1.6.34-.45.86-.84,1.55-1.17,2.11-1.03,5.93-1.11,7.38-1.11h2.39c1.45,0,5.28.07,7.38,1.11.69.34,1.21.72,1.55,1.17.32.42.48.95.48,1.6v1.29M90.53,44.72c.37,0,.67-.3.67-.67v-4.64c0-.37-.3-.67-.67-.67h-26.42c-1.45,0-5.28-.07-7.38-1.11-.69-.34-1.21-.72-1.55-1.17-.32-.42-.48-.95-.48-1.6v-2.47h13.47c3.51,0,12.78-.18,17.88-2.68,1.67-.82,2.93-1.75,3.75-2.85,1.75-2.34,1.91-7.03.01-9.57-.82-1.1-2.08-2.03-3.75-2.85-5.1-2.5-14.37-2.68-17.88-2.68h-5.78c-3.51,0-12.78.27-17.88,2.77-1.67.82-2.92,1.93-3.75,3.04-.76,1.02-1.15,2.49-1.15,4.06v13.21c0,1.58.39,3.05,1.15,4.07.83,1.1,2.08,2.21,3.75,3.03,5.1,2.5,14.37,2.79,17.88,2.77h28.12Z"/><path class="cls-3" d="M159.11,35.49c0,.65-.16,1.18-.48,1.6-.34.45-.86.84-1.55,1.18-2.11,1.03-5.93,1.11-7.38,1.11h-2.39c-1.45,0-5.28-.07-7.38-1.11-.69-.34-1.21-.72-1.55-1.18-.31-.42-.48-.95-.48-1.6v-1.52c0-.65.16-1.18.48-1.6.34-.46.86-.84,1.55-1.18,2.11-1.03,5.93-1.11,7.38-1.11h11.8v5.41M173.02,17.81c-.82-1.1-2.08-2.22-3.75-3.03-5.1-2.5-14.37-2.79-17.88-2.78h-7.22s0,0,0,0h-15.85c-.37,0-.67.3-.67.67v4.64c0,.37.3.67.67.67h21.37c1.45,0,5.27.07,7.38,1.11.69.34,1.21.72,1.55,1.18.31.42.48.95.48,1.6v2.23h-13.48c-3.51,0-12.78.18-17.88,2.68-1.67.82-2.93,1.75-3.75,2.85-1.87,2.5-1.89,7.29-.01,9.8.83,1.1,2.08,2.03,3.75,2.85,5.1,2.5,14.37,2.68,17.88,2.68h5.78c3.51,0,12.78-.27,17.88-2.77,1.67-.82,2.93-1.93,3.75-3.03.76-1.02,1.15-2.49,1.15-4.07v-13.21c0-1.58-.39-3.05-1.15-4.07Z"/><path class="cls-3" d="M204.68,2.6h.33l.66,1.05h.52l-.7-1.08c.46-.05.66-.35.66-.71,0-.46-.28-.75-.81-.75h-1.11v2.53h.46v-1.05M204.68,2.21v-.71h.52c.25,0,.49.02.49.33,0,.37-.22.38-.53.38h-.48"/><path class="cls-3" d="M205.11,4.29c-1.06,0-1.92-.86-1.92-1.92s.86-1.92,1.92-1.92,1.92.86,1.92,1.92-.86,1.92-1.92,1.92M205.11,0c-1.3,0-2.36,1.06-2.36,2.36s1.06,2.36,2.36,2.36,2.37-1.06,2.37-2.36-1.06-2.36-2.37-2.36"/><path class="cls-3" d="M97.54,44.06c0,.37.29.67.66.67h13.51c.37,0,.67-.3.67-.67v-26.07h8.26c.37,0,.67-.3.67-.67v-4.64c0-.37-.3-.67-.67-.67h-8.26v-2.06c0-.65.16-1.18.48-1.6.34-.45.86-.84,1.55-1.18,2.11-1.03,6.19-1.11,7.64-1.11h5.93c.37,0,.67-.3.67-.67V.74c0-.37-.3-.67-.67-.67h-7.64c-3.51-.02-12.78.3-17.88,3.08-1.67.91-2.92,2.14-3.75,3.37-.76,1.13-1.16,2.76-1.16,4.93v32.61"/></g></svg>