<?xml version="1.0" encoding="UTF-8"?><svg id="Capa_2" xmlns="http://www.w3.org/2000/svg" viewBox="0 0 291 47.38"><defs><style>.cls-1{stroke-width:0px;}</style></defs><g id="Capa_1-2"><path class="cls-1" d="M152.93,0h32.9v7.95h-24.01v11.37h23.37v7.71h-23.37v11.53h24.01v7.95h-32.9V0ZM275.23,47.38c10.09,0,15.77-4.77,15.77-11.37,0-4.69-3.36-8.19-10.41-9.7l-7.45-1.51c-4.32-.79-5.68-1.59-5.68-3.18,0-2.07,2.08-3.34,5.93-3.34,4.16,0,7.2,1.11,8.09,4.93h8.72c-.48-7.15-5.68-11.93-16.25-11.93-9.13,0-15.53,3.74-15.53,10.97,0,5.01,3.52,8.27,11.13,9.86l8.33,1.91c3.28.64,4.16,1.51,4.16,2.86,0,2.15-2.48,3.5-6.48,3.5-5.04,0-7.92-1.11-9.05-4.93h-8.81c1.28,7.15,6.64,11.92,17.53,11.92M255.34,38.72h-6.56c-2,0-3.28-.87-3.28-2.7v-16.06h9.85v-7.79h-9.85V2.39h-8.81v9.78h-6.64v7.79h6.64v18.28c0,4.61,3.28,8.27,9.21,8.27h9.45v-7.79ZM226.32,12.16v34.34h-8.72v-3.1c-3.1,2.59-7.01,4-11.05,3.97-10.33,0-18.41-8.03-18.41-18.05s8.09-18.05,18.41-18.05c4.04-.02,7.95,1.39,11.05,3.98v-3.1h8.72ZM217.76,29.34c.05-5.74-4.56-10.44-10.31-10.49-.06,0-.12,0-.18,0-5.77-.02-10.47,4.65-10.49,10.42,0,.02,0,.05,0,.07-.02,5.77,4.64,10.47,10.41,10.49h.07c5.84,0,10.49-4.61,10.49-10.49M18.53,41.06c6.49,0,11.5-4.98,11.5-12.36V0h7.03v46.5h-6.96v-4.32c-3.14,3.25-7.49,5.11-12.38,5.11C7.7,47.3,0,40.06,0,29.1V0h7.03v28.7c0,7.51,4.95,12.36,11.51,12.36M42.28,46.5h6.69v-4.25c3.22,3.24,7.6,5.06,12.17,5.05,10.03,0,17.93-7.91,17.93-17.67s-7.89-17.74-17.93-17.74c-4.55-.01-8.92,1.81-12.11,5.05V0h-6.76v46.5h0ZM60.68,41.39c-6.47.03-11.75-5.2-11.77-11.67,0-.03,0-.06,0-.09-.02-6.47,5.21-11.74,11.68-11.76.03,0,.06,0,.09,0,6.47,0,11.71,5.24,11.71,11.71,0,.02,0,.04,0,.05,0,6.51-5.28,11.76-11.71,11.76h0ZM99.28,11.96c-9.97,0-17.53,8.04-17.53,17.6,0,10.1,7.9,17.67,18.13,17.67,6.22,0,11.31-2.73,14.72-7.24l-4.88-3.59c-2.54,3.39-5.89,4.98-9.83,4.98-5.76,0-10.37-4.12-11.31-9.63h27.76v-2.19c0-10.1-7.22-17.6-17.06-17.6M88.71,26.44c1.21-5.18,5.42-8.64,10.44-8.64s9.23,3.45,10.37,8.64h-20.81,0ZM137.28,18.6v-6.24h-2.34c-3.75,0-6.49,1.73-8.16,4.45v-4.19h-6.69v33.88h6.76v-19.27c0-5.25,3.21-8.64,7.62-8.64h2.81Z"/></g></svg>