<?xml version="1.0" encoding="UTF-8"?><svg id="Capa_2" xmlns="http://www.w3.org/2000/svg" viewBox="0 0 189.85 255.76"><defs><style>.cls-1{fill:#0b9839;}.cls-1,.cls-2,.cls-3{stroke-width:0px;}.cls-2{fill:#e6302d;}.cls-3{fill:#fdc945;}</style></defs><g id="Capa_1-2"><rect class="cls-3" x="0" y="0" width="189.85" height="255.76" rx="94.93" ry="94.93"/><path class="cls-2" d="M90.35,115.7c0,22.23,29.3,31.86,29.3,64.24,0,22.06-13.43,40.09-35.71,40.09-20.45,0-31.89-18.91-31.89-42.01l16.78-2.27c.61,10.5,3.51,21.35,13.43,21.35,6.41,0,8.85-5.42,8.85-11.03,0-18.73-36.47-34.31-36.47-69.49,0-25.38,14.04-43.24,42.27-43.24s40.9,20.3,40.9,40.96c0,10.5-3.36,21.7-6.87,27.31l-24.26-8.58c1.37-3.85,2.9-8.23,2.9-13.65,0-9.45-4.73-15.58-10.68-15.58-5.34,0-8.55,5.25-8.55,11.9Z"/><path class="cls-1" d="M103.39,48.72c0,2.69-2.24,4.87-5.01,4.87-2.42,0-3.97-1.79-4.91-3.89-1.24-2.78-5.73-6.26-10.13-6.93-7.5-1.15-13.79-5.57-13.79-12.45s6.17-12.45,13.79-12.45c3.96,0,7.51,1.51,10.03,3.92,0,0,.07.06.19.19.71.72,1.35,1.5,1.87,2.35,2.28,3.31,4.78,10.27,7.68,21.79,0,0,0,0,0,0h0c.1.67.25,1.35.29,2.06,0,.14,0,.41,0,.54Z"/></g></svg>