<?xml version="1.0" encoding="UTF-8"?><svg id="Capa_2" xmlns="http://www.w3.org/2000/svg" viewBox="0 0 913.29 904.32"><defs><style>.cls-1{fill:#8cd1ec;stroke-width:0px;}</style></defs><g id="Capa_1-2"><path class="cls-1" d="M456.55,693.13c-43.46,70.87-86.48,141.02-129.5,211.17-.3-.09-.6-.18-.9-.27,1.73-82.23,3.46-164.45,5.22-247.69-74.86,36.11-149.09,71.92-223.33,107.73-.21-.18-.42-.37-.63-.55,46-68.36,92-136.73,138.48-205.8-82.46-10.09-164.06-20.07-245.67-30.05-.07-.34-.14-.68-.22-1.02,75.49-32.57,150.97-65.14,227.32-98.08-64-53.12-127.46-105.8-190.92-158.47.1-.24.2-.48.3-.73,81.32,13.47,162.63,26.93,244.86,40.55-25.12-79.3-50-157.84-74.89-236.38.23-.18.46-.37.69-.55,61.07,55.22,122.13,110.44,183.95,166.34C413.03,159.12,434.57,79.6,456.1.09c.29-.03.58-.06.87-.09,21.52,79.47,43.03,158.93,64.8,239.33,61.74-55.83,122.9-111.13,184.06-166.42.22.14.44.28.65.42-24.9,78.61-49.8,157.23-74.96,236.65,82.04-13.61,163.37-27.11,244.7-40.6.15.24.31.48.46.71-63.42,52.64-126.84,105.29-190.92,158.48,76.35,32.94,151.93,65.55,227.51,98.16-.02.3-.04.61-.05.91-81.72,10-163.45,19.99-246.03,30.09,46.43,69,92.4,137.3,138.37,205.61-.19.24-.38.49-.56.73-74.18-35.8-148.36-71.59-223.32-107.76,1.77,82.94,3.53,165.27,5.29,247.61-.31.13-.63.27-.94.4-43.04-70.18-86.07-140.36-129.5-211.18Z"/></g></svg>