<?xml version="1.0" encoding="UTF-8"?><svg id="Capa_2" xmlns="http://www.w3.org/2000/svg" viewBox="0 0 310.88 413.3"><defs><style>.cls-1{font-size:93.67px;}.cls-1,.cls-2,.cls-3{fill:#1d1d1b;}.cls-1,.cls-3{font-family:HelveticaNeue-CondensedBlack, 'Helvetica Neue';font-weight:800;}.cls-2{font-family:HelveticaNeue-Bold, 'Helvetica Neue';font-size:39.53px;font-weight:700;}.cls-4{fill:#f09dc4;stroke:#1d1d1b;stroke-miterlimit:10;stroke-width:2.76px;}.cls-3{font-size:140.5px;}.cls-5,.cls-6,.cls-7,.cls-8,.cls-9{stroke-width:0px;}.cls-6{fill:#2d509f;}.cls-7{fill:#fff;}.cls-8{fill:#e6302d;}.cls-9{fill:#fdc945;}</style></defs><g id="Capa_1-2"><path class="cls-5" d="M287.41,368.03c5.9,0,11.19-.1,16.48.03,6.18.14,8.03,2.62,6.47,8.51-1.66,6.3-3.34,12.6-5.14,18.86-3.37,11.73-11.14,17.71-23.36,17.81-13.75.11-27.5.03-41.26.03-69.45,0-138.89,0-208.34,0-16.42,0-23.15-5.21-27.48-21.21-1.44-5.3-2.95-10.57-4.34-15.89-1.38-5.31.45-7.9,5.98-8.09,5.47-.19,10.94-.04,17.1-.04v-96.86c0-18.4.25-36.8-.06-55.19-.5-29.99-1.02-59.98-2.24-89.95-.64-15.81,10.7-29.9,29.52-29.55,24.92.46,49.85.11,74.77.11,1.87,0,3.74,0,6.27,0-4.32-10.09-4.8-19.66.63-28.89,5.31-9.03,13.63-13.76,24.19-16.02-3.43-18.1-12.49-31.75-28.92-40.19-.91-.47-1.91-.78-2.84-1.21-3.11-1.44-5.36-3.5-3.67-7.22,1.66-3.63,4.7-3.56,7.87-2.19,21.53,9.3,33.32,26.15,37.65,48.75.1.5.18,1,.34,1.93,10.28,1.55,19.42,5.53,24.36,15.53,4.65,9.42,5.09,19.08-.18,29.25,2.33.1,4.12.25,5.92.26,20.97.02,41.94,0,62.92.02,18.78.02,29.47,10.65,29.5,29.3.02,10.49.16,20.98-.02,31.46-.65,37.56-1.41,75.12-2.12,112.67-.04,2.05,0,95.04,0,97.99ZM155.48,107.13c-35.57,0-71.15-.06-106.72.03-10.72.03-17.04,6.7-17.07,17.62-.04,13.24-.01,26.47-.01,39.71,0,7.74-.08,15.47.04,23.21.09,5.65,3.62,9.4,8.67,9.59,5.13.19,8.84-3.25,9.47-8.85.15-1.36.09-2.75.1-4.12.07-11.26,4.91-17.28,13.83-17.21,8.81.07,13.5,6.15,13.53,17.51,0,4.13-.15,8.26.11,12.37.26,4.12,2.57,6.74,6.83,7.01,3.88.25,6.91-2.79,7.12-7.23.2-4.46-.28-8.97.19-13.39.33-3.13,1.19-6.49,2.8-9.14,3.76-6.17,11.19-8.62,18.04-6.63,6.73,1.96,11.45,8.05,11.68,15.91.27,9.28-.04,18.57.18,27.84.18,7.63,4.89,12.66,11.4,12.7,6.93.04,11.57-4.99,11.69-12.84.09-6.36-.03-12.72.05-19.08.08-6.59,2.05-12.54,6.66-17.38,6.32-6.63,14.16-9.23,22.99-7.03,7.84,1.95,12.49,7.54,14.18,15.44.39,1.83.21,3.78.5,5.64,1.06,6.92,6.38,11.74,12.87,11.77,7.07.03,12.16-4.54,13.14-11.9.25-1.87.21-3.77.37-5.65.78-9.21,7.9-15.86,17.06-15.96,9.42-.09,16.7,6.56,17.54,16.01.21,2.39.25,4.83.77,7.16,1.71,7.73,9.04,12.05,16.49,9.87,5.67-1.66,9.24-6.91,9.25-13.94.04-19.6.02-39.19.02-58.79,0-14.65-5.57-20.27-20.14-20.27-34.54,0-69.09,0-103.63,0ZM154.94,367.45c38.51,0,77.02-.06,115.52.08,4.38.02,6.18-92.01,6.05-96.68-.28-9.97-.26-19.95,0-29.92.12-4.56-1.72-6.15-6.04-6.05-6.18.15-12.38.02-18.57.02-41.6,0-83.2,0-124.79,0-28.54,0-57.07-.02-85.61.02-6.65,0-6.98.41-7,7.03-.03,9.11-.02,18.23,0,27.34.01,7.18.02,98.14,6.99,98.14,37.82,0,75.64,0,113.46,0ZM299.33,378.67H11.8c1.03,3.9,1.89,7.35,2.84,10.77,3.18,11.52,5.86,13.57,17.66,13.57,82.14,0,164.29,0,246.43,0,1.72,0,3.44,0,5.15-.09,4.73-.22,8.46-2.52,10.13-6.77,2.16-5.5,3.49-11.33,5.32-17.48ZM157.21,223.62h119.37v-14.23c-1.7.47-2.98.87-4.28,1.19-13.75,3.31-26.52-4.8-29.35-18.73-.54-2.67-.55-5.45-.91-8.16-.51-3.77-2.73-5.87-6.55-5.91-3.81-.04-6.1,1.99-6.66,5.76-.23,1.52-.08,3.09-.19,4.63-.99,13.44-11.4,23.43-24.2,23.23-12.36-.19-22.51-10.11-23.31-23-.27-4.43-1.4-8.31-5.82-10-4.56-1.74-8.76-.4-12.43,2.67-4.25,3.57-4.76,8.46-4.87,13.56-.2,9.51-.51,19.03-.79,29ZM115.38,223.64c-.7-5.88-1.67-11.42-1.93-16.99-.33-7.03-.09-14.08-.08-21.13,0-3.87-.46-7.44-5.42-7.74-3.95-.24-5.91,2.38-5.96,7.79-.04,3.78.05,7.56-.03,11.34-.21,10.01-7.97,17.88-17.56,17.89-9.35,0-17.17-7.56-17.64-17.36-.26-5.31.09-10.66-.23-15.97-.08-1.26-1.74-2.42-2.67-3.63-1.08,1.23-2.73,2.31-3.1,3.72-.54,2.1-.1,4.43-.19,6.66-.52,11.93-9.38,20.09-21.24,19.63-1.65-.06-3.3,0-5,0v15.79h81.06ZM161.52,96.46c4.35-.86,9.83-1.46,14.98-3.09,5.25-1.65,7.74-5.73,7.61-11.5-.25-10.47-5.57-16.76-16.58-19.04-12.67-2.62-24.74,4.09-27.72,15.41-2.2,8.35,1.09,14.38,9.38,16.49,3.61.92,7.42,1.07,12.33,1.73Z"/><path class="cls-9" d="M155.48,107.13c34.54,0,69.09,0,103.63,0,14.57,0,20.14,5.62,20.14,20.27,0,19.6.03,39.19-.02,58.79-.01,7.02-3.58,12.28-9.25,13.94-7.45,2.18-14.79-2.13-16.49-9.87-.51-2.33-.55-4.77-.77-7.16-.84-9.46-8.12-16.11-17.54-16.01-9.16.09-16.28,6.74-17.06,15.96-.16,1.88-.12,3.79-.37,5.65-.98,7.36-6.08,11.93-13.14,11.9-6.49-.03-11.81-4.85-12.87-11.77-.28-1.86-.11-3.81-.5-5.64-1.69-7.9-6.34-13.5-14.18-15.44-8.83-2.19-16.68.41-22.99,7.03-4.61,4.84-6.58,10.79-6.66,17.38-.08,6.36.04,12.72-.05,19.08-.11,7.84-4.76,12.88-11.69,12.84-6.5-.04-11.22-5.07-11.4-12.7-.22-9.28.08-18.57-.18-27.84-.23-7.86-4.95-13.95-11.68-15.91-6.85-1.99-14.27.46-18.04,6.63-1.62,2.65-2.47,6.01-2.8,9.14-.47,4.42,0,8.93-.19,13.39-.2,4.44-3.23,7.48-7.12,7.23-4.26-.28-6.57-2.9-6.83-7.01-.26-4.11-.1-8.25-.11-12.37-.03-11.36-4.72-17.44-13.53-17.51-8.92-.07-13.76,5.95-13.83,17.21,0,1.37.06,2.76-.1,4.12-.63,5.6-4.34,9.03-9.47,8.85-5.05-.18-8.58-3.94-8.67-9.59-.12-7.73-.04-15.47-.04-23.21,0-13.24-.03-26.47.01-39.71.03-10.92,6.35-17.59,17.07-17.62,35.57-.09,71.15-.03,106.72-.04ZM41.85,136.08c0,4.13.05,8.25-.02,12.38-.06,3.46,1.47,5.86,4.94,6,3.48.15,5.37-2.18,5.41-5.58.1-8.42.12-16.85-.01-25.27-.05-3.4-2.18-6.06-5.44-5.35-1.93.42-4.26,3.35-4.65,5.47-.74,3.99-.21,8.21-.22,12.34Z"/><path class="cls-4" d="M154.94,367.45c-37.82,0-75.64,0-113.46,0-6.97,0-6.98-90.96-6.99-98.14-.01-9.11-.02-18.23,0-27.34.02-6.62.35-7.02,7-7.03,28.54-.04,57.07-.02,85.61-.02,41.6,0,83.2,0,124.79,0,6.19,0,12.38.13,18.57-.02,4.32-.11,6.16,1.49,6.04,6.05-.25,9.97-.27,19.95,0,29.92.13,4.67-1.67,96.69-6.05,96.68-38.51-.15-77.02-.08-115.52-.08Z"/><path class="cls-6" d="M299.33,378.67c-1.83,6.15-3.16,11.98-5.32,17.48-1.67,4.25-5.4,6.55-10.13,6.77-1.72.08-3.44.09-5.15.09-82.14,0-164.29,0-246.43,0-11.8,0-14.48-2.05-17.66-13.57-.95-3.42-1.81-6.87-2.84-10.77h287.53Z"/><path class="cls-7" d="M157.21,223.62c.28-9.97.59-19.48.79-29,.11-5.09.62-9.99,4.87-13.56,3.67-3.07,7.87-4.42,12.43-2.67,4.42,1.69,5.55,5.57,5.82,10,.8,12.88,10.95,22.8,23.31,23,12.8.2,23.21-9.79,24.2-23.23.11-1.54-.04-3.11.19-4.63.56-3.77,2.85-5.8,6.66-5.76,3.81.04,6.04,2.14,6.55,5.91.37,2.71.37,5.49.91,8.16,2.83,13.93,15.6,22.04,29.35,18.73,1.3-.31,2.59-.71,4.28-1.19v14.23h-119.37Z"/><path class="cls-7" d="M115.38,223.64H34.31v-15.79c1.71,0,3.36-.05,5,0,11.86.46,20.72-7.7,21.24-19.63.1-2.23-.35-4.57.19-6.66.36-1.41,2.02-2.49,3.1-3.72.93,1.21,2.59,2.37,2.67,3.63.32,5.31-.03,10.65.23,15.97.47,9.8,8.29,17.36,17.64,17.36,9.59,0,17.35-7.88,17.56-17.89.08-3.78,0-7.56.03-11.34.05-5.41,2.01-8.02,5.96-7.79,4.95.3,5.42,3.87,5.42,7.74-.01,7.04-.25,14.1.08,21.13.26,5.58,1.24,11.12,1.93,16.99Z"/><path class="cls-8" d="M161.52,96.46c-4.91-.66-8.72-.81-12.33-1.73-8.3-2.11-11.58-8.14-9.38-16.49,2.98-11.32,15.06-18.03,27.72-15.41,11.01,2.28,16.33,8.56,16.58,19.04.14,5.77-2.36,9.85-7.61,11.5-5.16,1.62-10.63,2.23-14.98,3.09Z"/><path class="cls-5" d="M41.85,136.08c0-4.13-.52-8.35.22-12.34.4-2.13,2.73-5.05,4.65-5.47,3.25-.72,5.39,1.95,5.44,5.35.13,8.42.12,16.85.01,25.27-.04,3.4-1.93,5.73-5.41,5.58-3.46-.15-4.99-2.54-4.94-6,.07-4.13.02-8.25.02-12.38Z"/><text class="cls-2" transform="translate(76.04 152.37)"><tspan x="0" y="0">Solo por</tspan></text><text class="cls-2" transform="translate(146.74 351.04)"><tspan x="0" y="0">/mes</tspan></text><text class="cls-3" transform="translate(69.28 354.86)"><tspan x="0" y="0">3</tspan></text><text class="cls-1" transform="translate(142.34 292.44) scale(.58)"><tspan x="0" y="0">,99€</tspan></text></g></svg>