<?xml version="1.0" encoding="UTF-8"?>
<svg id="Capa_2" xmlns="http://www.w3.org/2000/svg" version="1.1" viewBox="0 0 310.9 413.3">
  <!-- Generator: Adobe Illustrator 29.0.0, SVG Export Plug-In . SVG Version: 2.1.0 Build 186)  -->
  <defs>
    <style>
      .st0 {
        fill: #2d509f;
      }

      .st1 {
        fill: #1d1d1b;
      }

      .st2 {
        isolation: isolate;
      }

      .st3 {
        fill: #fdc945;
      }

      .st4 {
        fill: #e6302d;
      }

      .st5 {
        fill: #fff;
      }

      .st6 {
        fill: #f09dc4;
        stroke: #1d1d1b;
        stroke-miterlimit: 10;
        stroke-width: 2.8px;
      }
    </style>
  </defs>
  <path d="M287.4,368c5.9,0,11.2-.1,16.5,0,6.2.1,8,2.6,6.5,8.5-1.7,6.3-3.3,12.6-5.1,18.9-3.4,11.7-11.1,17.7-23.4,17.8-13.8.1-27.5,0-41.3,0H32.3c-16.4,0-23.1-5.2-27.5-21.2-1.4-5.3-3-10.6-4.3-15.9-1.4-5.3.4-7.9,6-8.1,5.5-.2,10.9,0,17.1,0v-96.9c0-18.4.2-36.8,0-55.2-.5-30-1-60-2.2-89.9-.6-15.8,10.7-29.9,29.5-29.6,24.9.5,49.8.1,74.8.1h6.3c-4.3-10.1-4.8-19.7.6-28.9,5.3-9,13.6-13.8,24.2-16-3.4-18.1-12.5-31.8-28.9-40.2-.9-.5-1.9-.8-2.8-1.2-3.1-1.4-5.4-3.5-3.7-7.2,1.7-3.6,4.7-3.6,7.9-2.2,21.5,9.3,33.3,26.1,37.6,48.8.1.5.2,1,.3,1.9,10.3,1.5,19.4,5.5,24.4,15.5,4.6,9.4,5.1,19.1-.2,29.2,2.3,0,4.1.2,5.9.3,21,0,41.9,0,62.9,0,18.8,0,29.5,10.7,29.5,29.3,0,10.5.2,21,0,31.5-.6,37.6-1.4,75.1-2.1,112.7,0,2,0,95,0,98h0ZM155.5,107.1c-35.6,0-71.2,0-106.7,0-10.7,0-17,6.7-17.1,17.6,0,13.2,0,26.5,0,39.7s0,15.5,0,23.2c0,5.6,3.6,9.4,8.7,9.6,5.1.2,8.8-3.2,9.5-8.9.2-1.4,0-2.8,0-4.1,0-11.3,4.9-17.3,13.8-17.2,8.8,0,13.5,6.1,13.5,17.5,0,4.1-.2,8.3.1,12.4.3,4.1,2.6,6.7,6.8,7,3.9.2,6.9-2.8,7.1-7.2.2-4.5-.3-9,.2-13.4.3-3.1,1.2-6.5,2.8-9.1,3.8-6.2,11.2-8.6,18-6.6,6.7,2,11.4,8.1,11.7,15.9.3,9.3,0,18.6.2,27.8.2,7.6,4.9,12.7,11.4,12.7,6.9,0,11.6-5,11.7-12.8,0-6.4,0-12.7,0-19.1,0-6.6,2.1-12.5,6.7-17.4,6.3-6.6,14.2-9.2,23-7,7.8,1.9,12.5,7.5,14.2,15.4.4,1.8.2,3.8.5,5.6,1.1,6.9,6.4,11.7,12.9,11.8,7.1,0,12.2-4.5,13.1-11.9.2-1.9.2-3.8.4-5.6.8-9.2,7.9-15.9,17.1-16,9.4,0,16.7,6.6,17.5,16,.2,2.4.2,4.8.8,7.2,1.7,7.7,9,12.1,16.5,9.9,5.7-1.7,9.2-6.9,9.2-13.9,0-19.6,0-39.2,0-58.8s-5.6-20.3-20.1-20.3h-103.6,0ZM154.9,367.5c38.5,0,77,0,115.5,0,4.4,0,6.2-92,6-96.7-.3-10-.3-19.9,0-29.9.1-4.6-1.7-6.1-6-6.1-6.2.1-12.4,0-18.6,0h-124.8c-28.5,0-57.1,0-85.6,0-6.7,0-7,.4-7,7,0,9.1,0,18.2,0,27.3,0,7.2,0,98.1,7,98.1h113.5,0ZM299.3,378.7H11.8c1,3.9,1.9,7.4,2.8,10.8,3.2,11.5,5.9,13.6,17.7,13.6h246.4c1.7,0,3.4,0,5.1,0,4.7-.2,8.5-2.5,10.1-6.8,2.2-5.5,3.5-11.3,5.3-17.5ZM157.2,223.6h119.4v-14.2c-1.7.5-3,.9-4.3,1.2-13.8,3.3-26.5-4.8-29.4-18.7-.5-2.7-.6-5.4-.9-8.2-.5-3.8-2.7-5.9-6.6-5.9-3.8,0-6.1,2-6.7,5.8-.2,1.5,0,3.1-.2,4.6-1,13.4-11.4,23.4-24.2,23.2-12.4-.2-22.5-10.1-23.3-23-.3-4.4-1.4-8.3-5.8-10-4.6-1.7-8.8-.4-12.4,2.7-4.2,3.6-4.8,8.5-4.9,13.6-.2,9.5-.5,19-.8,29h0ZM115.4,223.6c-.7-5.9-1.7-11.4-1.9-17-.3-7,0-14.1,0-21.1,0-3.9-.5-7.4-5.4-7.7-3.9-.2-5.9,2.4-6,7.8,0,3.8,0,7.6,0,11.3-.2,10-8,17.9-17.6,17.9-9.3,0-17.2-7.6-17.6-17.4-.3-5.3,0-10.7-.2-16,0-1.3-1.7-2.4-2.7-3.6-1.1,1.2-2.7,2.3-3.1,3.7-.5,2.1,0,4.4-.2,6.7-.5,11.9-9.4,20.1-21.2,19.6-1.7,0-3.3,0-5,0v15.8h81.1,0ZM161.5,96.5c4.4-.9,9.8-1.5,15-3.1,5.2-1.7,7.7-5.7,7.6-11.5-.2-10.5-5.6-16.8-16.6-19-12.7-2.6-24.7,4.1-27.7,15.4-2.2,8.3,1.1,14.4,9.4,16.5,3.6.9,7.4,1.1,12.3,1.7Z"/>
  <path class="st3" d="M155.5,107.1h103.6c14.6,0,20.1,5.6,20.1,20.3s0,39.2,0,58.8c0,7-3.6,12.3-9.2,13.9-7.5,2.2-14.8-2.1-16.5-9.9-.5-2.3-.6-4.8-.8-7.2-.8-9.5-8.1-16.1-17.5-16-9.2,0-16.3,6.7-17.1,16-.2,1.9-.1,3.8-.4,5.6-1,7.4-6.1,11.9-13.1,11.9-6.5,0-11.8-4.9-12.9-11.8-.3-1.9-.1-3.8-.5-5.6-1.7-7.9-6.3-13.5-14.2-15.4-8.8-2.2-16.7.4-23,7-4.6,4.8-6.6,10.8-6.7,17.4,0,6.4,0,12.7,0,19.1-.1,7.8-4.8,12.9-11.7,12.8-6.5,0-11.2-5.1-11.4-12.7-.2-9.3,0-18.6-.2-27.8-.2-7.9-4.9-13.9-11.7-15.9-6.8-2-14.3.5-18,6.6-1.6,2.6-2.5,6-2.8,9.1-.5,4.4,0,8.9-.2,13.4-.2,4.4-3.2,7.5-7.1,7.2-4.3-.3-6.6-2.9-6.8-7s0-8.2-.1-12.4c0-11.4-4.7-17.4-13.5-17.5-8.9,0-13.8,5.9-13.8,17.2,0,1.4,0,2.8,0,4.1-.6,5.6-4.3,9-9.5,8.9-5-.2-8.6-3.9-8.7-9.6-.1-7.7,0-15.5,0-23.2,0-13.2,0-26.5,0-39.7,0-10.9,6.3-17.6,17.1-17.6,35.6,0,71.2,0,106.7,0h0ZM41.8,136.1c0,4.1,0,8.2,0,12.4,0,3.5,1.5,5.9,4.9,6,3.5.1,5.4-2.2,5.4-5.6,0-8.4.1-16.9,0-25.3,0-3.4-2.2-6.1-5.4-5.3-1.9.4-4.3,3.3-4.7,5.5-.7,4-.2,8.2-.2,12.3h0Z"/>
  <path class="st6" d="M154.9,367.5H41.5c-7,0-7-91-7-98.1,0-9.1,0-18.2,0-27.3,0-6.6.3-7,7-7,28.5,0,57.1,0,85.6,0h124.8c6.2,0,12.4.1,18.6,0,4.3-.1,6.2,1.5,6,6.1-.2,10-.3,19.9,0,29.9.1,4.7-1.7,96.7-6,96.7-38.5-.1-77,0-115.5,0h0Z"/>
  <path class="st0" d="M299.3,378.7c-1.8,6.1-3.2,12-5.3,17.5-1.7,4.2-5.4,6.5-10.1,6.8-1.7,0-3.4,0-5.1,0H32.3c-11.8,0-14.5-2-17.7-13.6-.9-3.4-1.8-6.9-2.8-10.8h287.5Z"/>
  <path class="st5" d="M157.2,223.6c.3-10,.6-19.5.8-29,.1-5.1.6-10,4.9-13.6,3.7-3.1,7.9-4.4,12.4-2.7,4.4,1.7,5.6,5.6,5.8,10,.8,12.9,10.9,22.8,23.3,23,12.8.2,23.2-9.8,24.2-23.2.1-1.5,0-3.1.2-4.6.6-3.8,2.9-5.8,6.7-5.8,3.8,0,6,2.1,6.6,5.9.4,2.7.4,5.5.9,8.2,2.8,13.9,15.6,22,29.4,18.7,1.3-.3,2.6-.7,4.3-1.2v14.2h-119.4,0Z"/>
  <path class="st5" d="M115.4,223.6H34.3v-15.8c1.7,0,3.4,0,5,0,11.9.5,20.7-7.7,21.2-19.6,0-2.2-.3-4.6.2-6.7.4-1.4,2-2.5,3.1-3.7.9,1.2,2.6,2.4,2.7,3.6.3,5.3,0,10.6.2,16,.5,9.8,8.3,17.4,17.6,17.4s17.3-7.9,17.6-17.9c0-3.8,0-7.6,0-11.3,0-5.4,2-8,6-7.8,4.9.3,5.4,3.9,5.4,7.7,0,7-.2,14.1,0,21.1.3,5.6,1.2,11.1,1.9,17h0Z"/>
  <path class="st4" d="M161.5,96.5c-4.9-.7-8.7-.8-12.3-1.7-8.3-2.1-11.6-8.1-9.4-16.5,3-11.3,15.1-18,27.7-15.4,11,2.3,16.3,8.6,16.6,19,.1,5.8-2.4,9.8-7.6,11.5-5.2,1.6-10.6,2.2-15,3.1Z"/>
  <path d="M41.8,136.1c0-4.1-.5-8.3.2-12.3.4-2.1,2.7-5.1,4.7-5.5,3.2-.7,5.4,1.9,5.4,5.3.1,8.4.1,16.8,0,25.3,0,3.4-1.9,5.7-5.4,5.6-3.5-.1-5-2.5-4.9-6,0-4.1,0-8.2,0-12.4h0Z"/>
  <g class="st2">
    <g class="st2">
      <path class="st1" d="M83.5,145.4c.3.7.8,1.2,1.4,1.6.6.4,1.2.7,2,.9.8.2,1.6.3,2.4.3s1.1,0,1.8-.1c.6,0,1.2-.3,1.8-.5s1-.6,1.4-1.1c.4-.5.6-1,.6-1.8s-.2-1.4-.7-1.9c-.5-.5-1.1-.9-1.9-1.2s-1.7-.6-2.7-.8c-1-.2-2-.5-3-.8-1.1-.3-2.1-.6-3.1-1-1-.4-1.9-.9-2.7-1.5s-1.4-1.4-1.9-2.3c-.5-.9-.7-2-.7-3.3s.3-2.7.9-3.8,1.4-2,2.4-2.7c1-.7,2.1-1.2,3.4-1.6,1.3-.3,2.5-.5,3.8-.5s2.9.2,4.2.5c1.4.3,2.6.9,3.6,1.6,1.1.7,1.9,1.7,2.5,2.8.6,1.1.9,2.5.9,4.2h-6c0-.8-.2-1.5-.5-2.1-.3-.6-.7-1-1.2-1.3-.5-.3-1.1-.5-1.7-.7-.6-.1-1.4-.2-2.1-.2s-1,0-1.5.2c-.5.1-1,.3-1.4.6-.4.3-.7.6-1,1-.3.4-.4.9-.4,1.5s.1,1,.3,1.3c.2.3.6.7,1.2.9s1.5.6,2.6.9c1.1.3,2.5.7,4.3,1.1.5.1,1.3.3,2.2.6.9.3,1.9.7,2.8,1.3.9.6,1.7,1.4,2.4,2.4.7,1,1,2.3,1,3.9s-.3,2.5-.8,3.6c-.5,1.1-1.2,2.1-2.2,2.9s-2.2,1.4-3.7,1.9c-1.5.4-3.2.7-5.1.7s-3.1-.2-4.5-.6c-1.5-.4-2.8-1-3.9-1.8-1.1-.8-2-1.9-2.7-3.1-.7-1.3-1-2.8-.9-4.5h6c0,.9.2,1.8.5,2.4Z"/>
      <path class="st1" d="M103.9,137.7c.5-1.3,1.2-2.5,2.1-3.4.9-.9,2-1.7,3.3-2.2,1.3-.5,2.7-.8,4.3-.8s3.1.3,4.4.8c1.3.5,2.4,1.2,3.3,2.2.9.9,1.6,2.1,2.1,3.4s.8,2.8.8,4.4-.3,3.1-.8,4.4c-.5,1.3-1.2,2.4-2.1,3.4-.9.9-2,1.7-3.3,2.2-1.3.5-2.8.8-4.4.8s-3.1-.3-4.3-.8c-1.3-.5-2.4-1.2-3.3-2.2-.9-.9-1.6-2.1-2.1-3.4-.5-1.3-.8-2.8-.8-4.4s.3-3.1.8-4.4ZM109,144.6c.2.8.4,1.5.8,2.1.4.6.9,1.1,1.5,1.5.6.4,1.4.6,2.4.6s1.7-.2,2.4-.6c.6-.4,1.2-.9,1.5-1.5.4-.6.7-1.3.8-2.1.2-.8.2-1.6.2-2.4s0-1.6-.2-2.4c-.2-.8-.4-1.5-.8-2.1-.4-.6-.9-1.1-1.5-1.5-.6-.4-1.4-.6-2.4-.6s-1.7.2-2.4.6c-.6.4-1.1.9-1.5,1.5-.4.6-.7,1.3-.8,2.1-.2.8-.2,1.6-.2,2.4s0,1.6.2,2.4Z"/>
      <path class="st1" d="M133.8,124.1v28.2h-5.6v-28.2h5.6Z"/>
      <path class="st1" d="M138.3,137.7c.5-1.3,1.2-2.5,2.1-3.4.9-.9,2-1.7,3.3-2.2,1.3-.5,2.7-.8,4.3-.8s3.1.3,4.4.8c1.3.5,2.4,1.2,3.3,2.2.9.9,1.6,2.1,2.1,3.4.5,1.3.8,2.8.8,4.4s-.3,3.1-.8,4.4c-.5,1.3-1.2,2.4-2.1,3.4-.9.9-2,1.7-3.3,2.2-1.3.5-2.8.8-4.4.8s-3.1-.3-4.3-.8c-1.3-.5-2.4-1.2-3.3-2.2-.9-.9-1.6-2.1-2.1-3.4-.5-1.3-.8-2.8-.8-4.4s.3-3.1.8-4.4ZM143.4,144.6c.2.8.4,1.5.8,2.1.4.6.9,1.1,1.5,1.5.6.4,1.4.6,2.4.6s1.7-.2,2.4-.6c.6-.4,1.2-.9,1.5-1.5.4-.6.7-1.3.8-2.1.2-.8.2-1.6.2-2.4s0-1.6-.2-2.4c-.2-.8-.4-1.5-.8-2.1-.4-.6-.9-1.1-1.5-1.5-.6-.4-1.4-.6-2.4-.6s-1.7.2-2.4.6c-.6.4-1.1.9-1.5,1.5-.4.6-.7,1.3-.8,2.1-.2.8-.2,1.6-.2,2.4s0,1.6.2,2.4Z"/>
      <path class="st1" d="M178.7,131.9v2.6h0c.7-1.1,1.6-1.9,2.6-2.4,1.1-.5,2.2-.8,3.5-.8s3,.3,4.2.9c1.2.6,2.1,1.4,2.9,2.4.8,1,1.3,2.2,1.7,3.5.4,1.3.6,2.7.6,4.2s-.2,2.7-.6,4c-.4,1.3-.9,2.4-1.7,3.4-.8,1-1.7,1.8-2.8,2.3-1.1.6-2.4.9-3.9.9s-2.4-.3-3.5-.8-1.9-1.3-2.6-2.3h0v9.7h-5.6v-27.6h5.3ZM186,148.1c.6-.4,1.1-.9,1.5-1.4.4-.6.7-1.3.8-2.1.2-.8.2-1.6.2-2.4s0-1.6-.3-2.4c-.2-.8-.5-1.5-.8-2.1-.4-.6-.9-1.1-1.5-1.5-.6-.4-1.4-.6-2.3-.6s-1.7.2-2.3.6-1.1.9-1.5,1.5c-.4.6-.7,1.3-.8,2.1-.2.8-.2,1.6-.2,2.5s0,1.6.3,2.4c.2.8.4,1.5.8,2.1s.9,1.1,1.5,1.4c.6.4,1.4.6,2.3.6s1.7-.2,2.3-.6Z"/>
      <path class="st1" d="M197.6,137.7c.5-1.3,1.2-2.5,2.1-3.4.9-.9,2-1.7,3.3-2.2s2.7-.8,4.3-.8,3.1.3,4.4.8c1.3.5,2.4,1.2,3.3,2.2.9.9,1.6,2.1,2.1,3.4.5,1.3.8,2.8.8,4.4s-.3,3.1-.8,4.4c-.5,1.3-1.2,2.4-2.1,3.4-.9.9-2,1.7-3.3,2.2-1.3.5-2.8.8-4.4.8s-3.1-.3-4.3-.8-2.4-1.2-3.3-2.2c-.9-.9-1.6-2.1-2.1-3.4-.5-1.3-.8-2.8-.8-4.4s.2-3.1.8-4.4ZM202.7,144.6c.2.8.4,1.5.8,2.1.4.6.9,1.1,1.5,1.5s1.4.6,2.4.6,1.7-.2,2.4-.6c.6-.4,1.2-.9,1.5-1.5s.7-1.3.8-2.1c.2-.8.2-1.6.2-2.4s0-1.6-.2-2.4c-.2-.8-.4-1.5-.8-2.1s-.9-1.1-1.5-1.5c-.6-.4-1.4-.6-2.4-.6s-1.7.2-2.4.6-1.1.9-1.5,1.5c-.4.6-.7,1.3-.8,2.1-.2.8-.2,1.6-.2,2.4s0,1.6.2,2.4Z"/>
      <path class="st1" d="M227,131.9v3.8h0c.3-.6.6-1.2,1.1-1.8.4-.5,1-1,1.5-1.4.6-.4,1.2-.7,1.9-.9.7-.2,1.3-.3,2.1-.3s.8,0,1.2.2v5.2c-.3,0-.6,0-.9-.1-.4,0-.7,0-1.1,0-1,0-1.9.2-2.6.5-.7.3-1.3.8-1.7,1.4-.4.6-.7,1.3-.9,2.1-.2.8-.3,1.6-.3,2.6v9.2h-5.6v-20.4h5.3Z"/>
    </g>
  </g>
  <g class="st2">
    <g class="st2">
      <path class="st1" d="M161.8,322.1l-11,29.5h-4.5l11-29.5h4.5Z"/>
      <path class="st1" d="M169,330.6v2.8h0c.7-1.1,1.6-1.9,2.7-2.5,1-.6,2.2-.9,3.6-.9s2.5.3,3.5.8c1.1.5,1.9,1.4,2.4,2.6.6-.9,1.4-1.7,2.5-2.4,1-.7,2.3-1,3.7-1s2.1.1,3,.4c.9.3,1.7.7,2.4,1.3.7.6,1.2,1.3,1.5,2.3.4.9.6,2.1.6,3.4v13.7h-5.6v-11.6c0-.7,0-1.3,0-1.9,0-.6-.2-1.1-.4-1.6-.2-.4-.6-.8-1-1.1-.5-.3-1.1-.4-1.9-.4s-1.4.2-1.9.5c-.5.3-.9.7-1.1,1.2-.3.5-.5,1-.6,1.7,0,.6-.1,1.2-.1,1.9v11.4h-5.6v-11.5c0-.6,0-1.2,0-1.8,0-.6-.1-1.1-.3-1.6-.2-.5-.5-.9-1-1.2s-1.1-.5-2-.5-.6,0-1,.2c-.4.1-.9.3-1.3.7-.4.3-.8.8-1,1.4-.3.6-.4,1.4-.4,2.4v11.9h-5.6v-20.4h5.3Z"/>
      <path class="st1" d="M205.4,346.1c.8.8,2.1,1.2,3.6,1.2s2.1-.3,2.9-.8c.8-.6,1.3-1.2,1.5-1.8h4.9c-.8,2.5-2,4.2-3.6,5.3-1.6,1.1-3.6,1.6-5.9,1.6s-3.1-.3-4.3-.8c-1.3-.5-2.4-1.2-3.3-2.2-.9-.9-1.6-2.1-2.1-3.4-.5-1.3-.7-2.8-.7-4.3s.2-3,.8-4.3c.5-1.3,1.2-2.5,2.1-3.4.9-1,2-1.7,3.3-2.3s2.7-.8,4.2-.8,3.3.3,4.5,1c1.3.7,2.4,1.6,3.2,2.7s1.4,2.4,1.8,3.9c.4,1.4.5,3,.4,4.5h-14.7c0,1.8.5,3.1,1.4,4ZM211.7,335.4c-.7-.7-1.7-1.1-3.1-1.1s-1.6.2-2.2.5c-.6.3-1.1.7-1.4,1.1-.4.4-.6.9-.8,1.4-.1.5-.2.9-.3,1.3h9.1c-.3-1.4-.7-2.5-1.4-3.2Z"/>
      <path class="st1" d="M226.8,346c.2.4.6.8,1,1.1.4.3.8.5,1.4.6s1,.2,1.6.2.8,0,1.2-.1c.4,0,.8-.2,1.2-.4.4-.2.7-.5.9-.8s.4-.7.4-1.2c0-.8-.6-1.5-1.7-1.9-1.1-.4-2.7-.8-4.7-1.3-.8-.2-1.6-.4-2.4-.7-.8-.2-1.5-.6-2.1-1-.6-.4-1.1-.9-1.5-1.5s-.6-1.4-.6-2.3c0-1.3.3-2.4.8-3.2.5-.8,1.2-1.5,2-2s1.8-.8,2.8-1c1.1-.2,2.1-.3,3.2-.3s2.2.1,3.2.3,2,.6,2.8,1.1c.8.5,1.5,1.2,2,2,.5.8.9,1.9,1,3.1h-5.3c0-1.1-.5-1.8-1.2-2.2-.7-.4-1.6-.6-2.6-.6s-.7,0-1,0c-.4,0-.7.1-1,.3-.3.1-.6.3-.8.6-.2.3-.3.6-.3,1s.2.9.6,1.2.8.6,1.4.8c.6.2,1.3.4,2,.5s1.5.3,2.3.5c.8.2,1.6.4,2.4.7.8.3,1.5.6,2.1,1,.6.4,1.1,1,1.5,1.6s.6,1.4.6,2.4c0,1.3-.3,2.5-.8,3.4s-1.2,1.6-2.1,2.2c-.9.6-1.9.9-3,1.2s-2.3.3-3.4.3-2.3-.1-3.5-.4c-1.1-.2-2.1-.6-3-1.2-.9-.6-1.6-1.3-2.2-2.2-.6-.9-.9-2-.9-3.4h5.3c0,.6.1,1.1.4,1.6Z"/>
    </g>
  </g>
  <g class="st2">
    <g class="st2">
      <path class="st1" d="M56.9,289.4c0-10.2,3.4-18.3,10.3-24.2,6.8-5.9,15.9-8.9,27.1-8.9s20,2.5,26.6,7.4c6.6,5,9.8,11.6,9.8,20s-1.2,8.9-3.7,12.2-5.8,5.6-10,6.6c5.4,1.4,9.6,4,12.6,7.8,3,3.8,4.5,8.5,4.5,14.1,0,10.5-3.9,18.5-11.7,24s-17.2,8.3-28,8.3-21.1-2.9-28.6-8.7c-7.5-5.8-11.3-14.4-11.3-25.7v-2.5h22.8c.2,5.7,1.5,10,3.9,12.7,2.4,2.8,6.6,4.1,12.5,4.1s8.7-1.1,11.5-3.4c2.8-2.2,4.2-5.3,4.2-9.3s-1.4-6.9-4.2-9.1c-2.8-2.2-6.7-3.3-11.7-3.3s-3.7,0-7.2.1v-16c1.1,0,2.4.1,3.8.1,2.7,0,5.6-.2,8.6-.6,2.9-.4,5.2-1.4,6.9-3.2,1.7-1.7,2.5-3.9,2.5-6.4s-1.3-5.8-3.8-7.7c-2.5-2-5.9-3-10-3-9.6,0-14.5,4.8-14.8,14.3h-22.6Z"/>
    </g>
  </g>
  <g class="st2">
    <g class="st2">
      <path class="st1" d="M155.9,282.7v8.2c0,3.5-.8,6.1-2.3,7.8-1.6,1.7-4.1,2.8-7.5,3.4v-4.5c2.7-.7,4.1-2.4,4.3-5.1h-4.3v-9.8h9.8Z"/>
      <path class="st1" d="M170.4,282.8c.7,2.4,2.4,3.5,5.1,3.5,3.9,0,6.3-3.2,7-9.6-1.3,1.5-2.6,2.5-3.9,3.1-1.3.6-2.9.9-4.9.9-3.7,0-6.7-1.2-9-3.5-2.3-2.3-3.4-5.4-3.4-9.2s1.4-7.3,4.1-9.9c2.8-2.6,6.3-3.9,10.6-3.9s8.7,1.6,11.4,4.8c2.7,3.2,4.1,7.7,4.1,13.5,0,6.5-1.3,11.6-4.2,15.1-2.8,3.5-6.8,5.3-12,5.3s-6.9-.9-9.3-2.7c-2.4-1.8-3.9-4.4-4.3-7.6h8.7ZM171.8,263.5c-1.1,1.1-1.7,2.6-1.7,4.4s.6,3.2,1.7,4.4c1.1,1.2,2.5,1.7,4.2,1.7s3.1-.6,4.3-1.7,1.7-2.6,1.7-4.4-.6-3.2-1.7-4.4-2.6-1.7-4.3-1.7-3.1.6-4.2,1.7Z"/>
      <path class="st1" d="M204.7,282.8c.7,2.4,2.4,3.5,5.1,3.5,3.9,0,6.3-3.2,7-9.6-1.3,1.5-2.6,2.5-3.9,3.1-1.3.6-2.9.9-4.9.9-3.7,0-6.7-1.2-9-3.5-2.3-2.3-3.4-5.4-3.4-9.2s1.4-7.3,4.1-9.9c2.8-2.6,6.3-3.9,10.6-3.9s8.7,1.6,11.4,4.8c2.7,3.2,4.1,7.7,4.1,13.5,0,6.5-1.3,11.6-4.2,15.1-2.8,3.5-6.8,5.3-12,5.3s-6.9-.9-9.3-2.7c-2.4-1.8-3.9-4.4-4.3-7.6h8.7ZM206,263.5c-1.1,1.1-1.7,2.6-1.7,4.4s.6,3.2,1.7,4.4c1.1,1.2,2.5,1.7,4.2,1.7s3.1-.6,4.3-1.7,1.7-2.6,1.7-4.4-.6-3.2-1.7-4.4-2.6-1.7-4.3-1.7-3.1.6-4.2,1.7Z"/>
      <path class="st1" d="M255.9,262.7c-2.5-1.6-4.9-2.4-7.1-2.4-3.8,0-6.3,2.5-7.6,7.4h13.3l-1.7,3.9h-12.2v2.3c0,0,11.5,0,11.5,0l-1.7,3.9h-9.5c1.2,5.7,3.8,8.6,8,8.6s5.5-1.1,8.4-3.4v8.2c-2.5,1.4-5.3,2.1-8.4,2.1-4.6,0-8.2-1.5-11-4.4-2.5-2.6-4.2-6.3-4.9-11.1h-4.2l1.7-3.9h2.2v-1.4c0-.5,0-.8,0-.9h-4l1.7-3.9h2.8c.9-4.4,2.7-7.8,5.4-10.4,2.9-2.8,6.4-4.1,10.8-4.1s6.3.9,9.9,2.7l-3.3,6.8Z"/>
    </g>
  </g>
</svg>